<?xml version="1.0" standalone="yes"?>
<svg width="360" height="176">
<path style="fill:#ffffff; stroke:none;" d="M0 0L0 176L360 176L360 0L0 0z"/>
<path style="fill:#000000; stroke:none;" d="M319 80L87 80L33 80C26.8908 80 16.6694 78.0126 17.0779 86.9853C17.4485 95.1249 28.3653 93 34 93L88 93L319 93C311.477 102.261 302.547 110.381 294.424 119.116C289.393 124.526 284.221 129.771 279 135C274.36 139.647 266.846 145.639 264.6 152.001C262.963 156.639 265.196 162.842 271.004 161.442C277.81 159.801 283.781 150.575 288.464 145.7C301.561 132.064 314.894 118.665 327.961 105C331.701 101.088 343.539 91.6663 343.118 86.0147C342.661 79.8681 332.029 72.0288 328 68C313.783 53.7823 300.288 38.9 286.127 24.6258C282.555 21.0253 270.842 5.22154 265.179 13.4336C260.091 20.8131 270.617 28.3546 274.715 33C288.702 48.8583 306.779 62.7833 319 80z"/>
<path style="fill:#565656; stroke:none;" d="M263 14L263 21L264 21L263 14z"/>
<path style="fill:#9a9a9a; stroke:none;" d="M318 78L287 79L225 79L20 79L20 80L248 80L302 80L318 78z"/>
<path style="fill:#5c5c5c; stroke:none;" d="M16 83L16 90L17 90L16 83z"/>
<path style="fill:#616161; stroke:none;" d="M344 85L344 88L345 88L344 85z"/>
<path style="fill:#9a9a9a; stroke:none;" d="M20 93L20 94L222 94L285 94L319 95C315.394 90.8735 304.217 93 299 93L244 93L20 93z"/>
<path style="fill:#d3d3d3; stroke:none;" d="M315 117L306 128C309.595 125.467 315.1 121.716 315 117z"/>
<path style="fill:#595959; stroke:none;" d="M263 152L263 158L264 158L263 152z"/>
</svg>
