<?xml version="1.0" standalone="no"?>
<!DOCTYPE svg PUBLIC "-//W3C//DTD SVG 20010904//EN"
 "http://www.w3.org/TR/2001/REC-SVG-20010904/DTD/svg10.dtd">
<svg version="1.0" xmlns="http://www.w3.org/2000/svg"
 width="900.000000pt" height="800.000000pt" viewBox="0 0 900.000000 800.000000"
 preserveAspectRatio="xMidYMid meet">
<metadata>
Created by potrace 1.16, written by Peter Selinger 2001-2019
</metadata>
<g transform="translate(0.000000,800.000000) scale(0.100000,-0.100000)"
fill="#000000" stroke="none">
<path d="M4374 7986 c-79 -23 -154 -59 -219 -108 -33 -25 -449 -416 -925 -869
-476 -453 -1228 -1167 -1670 -1587 -443 -420 -836 -796 -873 -835 -133 -140
-187 -252 -187 -390 0 -172 100 -361 230 -431 138 -75 269 -72 395 9 62 39
-15 -33 1425 1340 641 611 1331 1269 1534 1462 204 194 382 357 396 362 18 6
36 5 56 -4 16 -7 531 -491 1144 -1076 613 -584 1349 -1285 1634 -1557 286
-272 543 -509 571 -527 224 -144 494 -31 592 245 32 91 33 263 2 345 -31 82
-121 195 -256 319 -289 268 -665 632 -679 658 -13 25 -15 143 -15 856 0 563
-3 838 -10 860 -7 20 -21 37 -36 43 -14 5 -280 9 -638 9 -588 0 -614 -1 -636
-19 -24 -19 -24 -21 -25 -236 -1 -119 -4 -218 -6 -220 -2 -2 -292 270 -643
606 -374 357 -668 629 -706 655 -104 69 -186 96 -304 100 -67 3 -117 -1 -151
-10z"/>
<path d="M6293 7969 c-39 -11 -79 -58 -93 -107 -16 -59 -13 -364 4 -388 14
-18 32 -19 655 -19 513 0 643 3 653 13 10 10 13 60 13 200 -1 174 -2 190 -23
229 -42 81 -17 78 -632 80 -314 1 -558 -2 -577 -8z"/>
<path d="M4393 6338 c-85 -79 -2111 -1995 -2572 -2433 -215 -204 -291 -282
-310 -320 l-26 -50 -3 -1560 c-2 -1135 0 -1582 8 -1642 22 -152 95 -259 208
-305 l57 -23 785 -3 c432 -2 800 0 818 3 64 12 61 -33 63 875 2 957 6 1019 81
1243 233 700 851 1031 140 3 755 264 -132 491 -414 598 -743 88 -271 89 -289
94 -1230 2 -451 6 -834 8 -852 5 -25 13 -34 38 -42 22 -8 280 -10 822 -9 l790
3 50 25 c63 30 144 111 173 170 54 113 52 35 49 1745 l-2 1580 -30 52 c-18 32
-84 103 -170 185 -77 73 -695 662 -1374 1308 -679 646 -1274 1211 -1323 1257
-118 110 -127 110 -235 11z"/>
</g>
</svg>
