<?xml version="1.0" standalone="no"?>
<!DOCTYPE svg PUBLIC "-//W3C//DTD SVG 20010904//EN"
 "http://www.w3.org/TR/2001/REC-SVG-20010904/DTD/svg10.dtd">
<svg version="1.0" xmlns="http://www.w3.org/2000/svg"
 width="512.000000pt" height="382.000000pt" viewBox="0 0 512.000000 382.000000"
 preserveAspectRatio="xMidYMid meet">

<g transform="translate(0.000000,382.000000) scale(0.100000,-0.100000)"
fill="#000000" stroke="none">
<path d="M213 3691 c-28 -9 -68 -28 -88 -42 -46 -31 -101 -112 -115 -169 -7
-31 -10 -498 -8 -1555 l3 -1510 23 -46 c31 -63 86 -117 152 -148 l55 -26 2325
0 2325 0 53 24 c71 32 147 116 167 185 13 46 15 236 13 1566 l-3 1515 -23 46
c-31 64 -85 117 -151 148 l-56 26 -2310 2 c-2199 2 -2312 2 -2362 -16z m1067
-985 c709 -568 1045 -831 1091 -855 109 -55 267 -55 383 0 25 11 510 393 1078
848 568 455 1040 830 1049 833 22 8 59 -18 59 -41 0 -11 -312 -303 -790 -742
l-790 -724 203 -205 c112 -113 467 -472 790 -798 335 -338 587 -600 587 -610
0 -23 -19 -42 -41 -42 -10 0 -412 327 -895 726 -482 399 -881 723 -888 720 -6
-2 -88 -69 -183 -149 -204 -171 -226 -182 -368 -182 -137 0 -166 15 -378 191
-94 79 -177 143 -184 142 -6 -2 -402 -325 -878 -718 -477 -393 -878 -719 -891
-724 -27 -11 -54 6 -54 35 0 11 319 339 794 817 l795 798 -795 724 c-491 447
-794 730 -794 741 0 23 37 49 59 41 9 -3 477 -375 1041 -826z"/>
</g>
</svg>
