<?xml version="1.0" standalone="no"?>
<!DOCTYPE svg PUBLIC "-//W3C//DTD SVG 20010904//EN"
 "http://www.w3.org/TR/2001/REC-SVG-20010904/DTD/svg10.dtd">
<svg version="1.0" xmlns="http://www.w3.org/2000/svg"
 width="512.000000pt" height="512.000000pt" viewBox="0 0 512.000000 512.000000"
 preserveAspectRatio="xMidYMid meet">

<g transform="translate(0.000000,512.000000) scale(0.100000,-0.100000)"
fill="#000000" stroke="none">
<path d="M3180 4626 c-161 -36 -308 -118 -400 -223 -46 -52 -107 -147 -121
-190 l-11 -35 76 -77 c241 -241 358 -569 343 -956 -7 -164 -23 -258 -71 -415
-71 -235 -175 -439 -323 -633 -24 -31 -42 -61 -39 -66 3 -4 34 -18 68 -31 35
-12 135 -57 223 -100 391 -192 642 -400 761 -634 l39 -77 80 6 c574 45 910
172 985 372 29 77 28 240 -1 318 -41 109 -177 249 -349 360 -132 85 -413 217
-599 281 -100 35 -134 106 -111 231 9 47 22 76 46 106 200 251 307 513 334
821 19 215 -14 408 -95 565 -102 198 -285 335 -502 377 -89 17 -256 17 -333 0z"/>
<path d="M1760 4100 c-309 -30 -567 -226 -674 -512 -50 -132 -61 -201 -61
-378 1 -186 15 -277 70 -447 63 -192 157 -362 286 -519 68 -83 84 -132 77
-237 -3 -49 -13 -89 -31 -127 -46 -97 -68 -115 -222 -179 -464 -192 -768 -410
-869 -621 -30 -62 -31 -70 -31 -195 0 -122 2 -133 27 -182 114 -215 486 -343
1088 -373 113 -6 255 -16 315 -22 61 -5 139 -8 175 -5 36 3 160 10 275 16 722
38 1085 155 1211 391 16 29 19 57 19 175 0 138 -1 142 -32 205 -58 117 -166
226 -343 345 -108 73 -387 210 -555 273 -125 47 -131 51 -162 96 -43 63 -57
114 -56 211 0 115 15 156 87 244 80 99 112 145 174 256 202 361 247 768 118
1086 -137 338 -490 538 -886 499z"/>
</g>
</svg>
