<?xml version="1.0" standalone="no"?>
<!DOCTYPE svg PUBLIC "-//W3C//DTD SVG 20010904//EN"
 "http://www.w3.org/TR/2001/REC-SVG-20010904/DTD/svg10.dtd">
<svg version="1.0" xmlns="http://www.w3.org/2000/svg"
 width="512.000000pt" height="382.000000pt" viewBox="0 0 512.000000 382.000000"
 preserveAspectRatio="xMidYMid meet">

<g transform="translate(0.000000,382.000000) scale(0.100000,-0.100000)"
fill="#000000" stroke="none">
<path d="M1408 3643 l-3 -178 -150 -5 c-141 -5 -154 -7 -210 -35 -32 -17 -80
-51 -106 -77 -41 -42 -55 -65 -91 -148 -6 -14 -15 -34 -20 -45 -5 -11 -7 -628
-6 -1445 l3 -1425 23 -58 c30 -73 116 -167 184 -201 l52 -26 1476 0 1476 0 52
26 c68 34 154 128 184 201 l23 58 3 1425 c1 854 -1 1433 -7 1445 -5 11 -16 38
-26 60 -9 22 -22 51 -28 64 -21 44 -101 115 -162 146 -56 28 -69 30 -210 35
l-150 5 -3 178 -2 177 -185 0 -185 0 -2 -177 -3 -178 -775 0 -775 0 -3 178 -2
177 -185 0 -185 0 -2 -177z m2510 -747 c2 -145 -1 -191 -10 -198 -15 -9 -2668
-11 -2692 -2 -14 5 -16 32 -16 193 0 103 3 191 7 194 3 4 614 6 1357 5 l1351
-3 3 -189z m0 -1558 l2 -968 -22 -5 c-13 -3 -624 -4 -1358 -3 l-1335 3 -3 960
c-1 528 0 966 3 973 3 10 280 12 1357 10 l1353 -3 3 -967z"/>
<path d="M1600 1725 l0 -185 960 0 960 0 0 185 0 185 -960 0 -960 0 0 -185z"/>
<path d="M1600 950 l0 -190 670 0 670 0 0 190 0 190 -670 0 -670 0 0 -190z"/>
</g>
</svg>
