<?xml version="1.0" standalone="no"?>
<!DOCTYPE svg PUBLIC "-//W3C//DTD SVG 20010904//EN"
 "http://www.w3.org/TR/2001/REC-SVG-20010904/DTD/svg10.dtd">
<svg version="1.0" xmlns="http://www.w3.org/2000/svg"
 width="512.000000pt" height="512.000000pt" viewBox="0 0 512.000000 512.000000"
 preserveAspectRatio="xMidYMid meet">

<g transform="translate(0.000000,512.000000) scale(0.100000,-0.100000)"
fill="#000000" stroke="none">
<path d="M2465 4284 c-228 -36 -408 -191 -475 -409 -83 -274 -4 -639 196 -900
73 -97 84 -119 84 -176 0 -91 -45 -140 -172 -189 -176 -68 -381 -185 -504
-288 -136 -114 -278 -334 -364 -565 -45 -120 -54 -100 -48 112 4 147 8 176 33
251 46 144 98 232 194 333 50 53 55 61 53 100 -3 47 11 77 76 161 93 122 154
279 173 448 32 281 -90 502 -319 579 -98 33 -241 32 -339 -3 -182 -65 -288
-208 -312 -422 -23 -205 51 -445 193 -626 50 -64 51 -66 51 -137 0 -93 -7
-100 -161 -163 -251 -101 -431 -227 -484 -337 -13 -26 -27 -56 -32 -65 -4 -10
-8 -123 -8 -253 0 -234 0 -234 26 -282 149 -272 775 -499 1624 -590 209 -22
957 -25 1170 -5 558 53 993 157 1322 315 182 88 297 179 352 280 26 48 26 48
26 282 0 130 -4 243 -8 253 -5 9 -19 39 -32 65 -52 107 -244 241 -483 337
-155 63 -162 70 -162 163 0 72 0 72 52 137 139 177 215 423 192 626 -18 162
-80 277 -191 360 -101 74 -242 106 -377 85 -213 -33 -358 -182 -398 -407 -35
-201 34 -464 169 -640 65 -84 79 -114 76 -161 -2 -39 3 -47 53 -100 96 -101
148 -189 194 -333 25 -75 29 -104 33 -251 6 -212 -3 -232 -48 -112 -82 219
-221 440 -351 557 -114 103 -311 214 -509 288 -128 48 -143 57 -164 101 -37
78 -15 167 65 267 72 91 159 263 193 384 52 181 54 375 6 528 -56 181 -205
327 -390 382 -55 17 -219 28 -275 20z"/>
</g>
</svg>
