<?xml version="1.0" standalone="no"?>
<!DOCTYPE svg PUBLIC "-//W3C//DTD SVG 20010904//EN"
 "http://www.w3.org/TR/2001/REC-SVG-20010904/DTD/svg10.dtd">
<svg version="1.0" xmlns="http://www.w3.org/2000/svg"
 width="900.000000pt" height="920.000000pt" viewBox="0 0 900.000000 920.000000"
 preserveAspectRatio="xMidYMid meet">
<metadata>
Created by potrace 1.16, written by Peter Selinger 2001-2019
</metadata>
<g transform="translate(0.000000,920.000000) scale(0.100000,-0.100000)"
fill="#000000" stroke="none">
<path d="M3145 9185 c-261 -26 -458 -65 -695 -136 -1201 -361 -2134 -1380
-2380 -2599 -50 -251 -64 -398 -65 -680 0 -484 78 -882 261 -1323 318 -766
950 -1426 1706 -1781 966 -453 2068 -447 3020 18 113 55 325 176 419 239 l26
18 1030 -1008 c567 -555 1197 -1171 1401 -1370 339 -332 373 -363 404 -363 75
1 111 31 402 326 155 157 291 304 304 326 12 23 22 57 22 75 0 42 83 -43 -805
824 -390 381 -816 797 -945 924 -129 127 -414 406 -633 620 -381 373 -396 389
-382 409 193 264 384 615 486 891 88 240 166 576 188 815 40 422 14 789 -86
1185 -199 796 -677 1489 -1359 1972 -663 470 -1520 698 -2319 618z m576 -685
c1078 -105 1990 -807 2352 -1811 312 -863 167 -1826 -385 -2560 -381 -507
-913 -862 -1533 -1024 -243 -64 -385 -80 -690 -80 -230 1 -291 4 -414 23 -597
94 -1126 360 -1545 777 -440 437 -717 999 -793 1606 -22 180 -22 500 1 674
125 953 723 1759 1603 2160 274 124 608 212 908 238 93 8 401 6 496 -3z"/>
</g>
</svg>
