<?xml version="1.0" standalone="no"?>
<!DOCTYPE svg PUBLIC "-//W3C//DTD SVG 20010904//EN"
 "http://www.w3.org/TR/2001/REC-SVG-20010904/DTD/svg10.dtd">
<svg version="1.0" xmlns="http://www.w3.org/2000/svg"
 width="900.000000pt" height="766.000000pt" viewBox="0 0 900.000000 766.000000"
 preserveAspectRatio="xMidYMid meet">

<g transform="translate(0.000000,766.000000) scale(0.100000,-0.100000)"
fill="#000000" stroke="none">
<path d="M6020 7649 c-110 -12 -311 -62 -423 -105 -538 -207 -958 -668 -1127
-1237 -65 -218 -75 -296 -74 -587 0 -199 4 -285 16 -345 8 -44 14 -81 13 -83
-6 -7 -286 20 -455 44 -948 134 -1857 552 -2605 1196 -219 190 -496 475 -661
682 -37 47 -71 86 -75 86 -9 0 -79 -143 -117 -240 -135 -342 -169 -776 -90
-1150 94 -445 356 -864 708 -1133 l65 -49 -85 7 c-213 17 -413 72 -619 171
l-134 64 7 -122 c19 -312 93 -584 231 -846 253 -477 666 -803 1195 -943 l45
-12 -50 -13 c-212 -56 -473 -66 -733 -28 l-42 7 31 -89 c140 -401 426 -760
782 -982 246 -154 519 -244 811 -268 l90 -7 -40 -34 c-73 -62 -265 -195 -397
-275 -646 -392 -1453 -576 -2181 -497 -49 5 -91 8 -93 5 -2 -2 49 -37 114 -78
639 -402 1346 -658 2073 -748 403 -50 850 -52 1260 -5 800 91 1547 361 2195
794 543 363 1028 846 1404 1401 558 823 893 1747 997 2750 9 80 18 287 21 461
l6 315 106 85 c148 118 427 399 555 559 112 141 251 338 243 346 -2 2 -29 -7
-59 -21 -245 -112 -658 -230 -943 -268 l-40 -6 25 17 c297 202 522 463 671
777 49 103 115 279 101 272 -4 -2 -41 -25 -83 -50 -263 -158 -610 -299 -938
-382 l-139 -36 -49 52 c-69 74 -214 193 -318 262 -209 138 -434 227 -686 273
-103 18 -394 26 -509 13z"/>
</g>
</svg>
