<?xml version="1.0" standalone="yes"?>
<svg width="900" height="766">
<path style="fill:#ffffff; stroke:none;" d="M0 0L0 15L15 15L15 30L0 30L0 45L15 45L15 60L0 60L0 75L15 75L15 90L0 90L0 105L15 105L15 120L0 120L0 135L15 135L15 150L0 150L0 165L15 165L15 180L0 180L0 195L15 195L15 210L0 210L0 225L15 225L15 240L0 240L0 255L15 255L15 270L0 270L0 285L15 285L15 300L0 300L0 315L15 315L15 330L0 330L0 345L15 345L15 360L0 360L0 375L15 375L15 390L0 390L0 405L15 405L15 420L0 420L0 435L15 435L15 450L0 450L0 465L15 465L15 480L0 480L0 495L15 495L15 510L0 510L0 525L15 525L15 540L0 540L0 555L15 555L15 570L0 570L0 585L15 585L15 600L0 600L0 615L15 615L15 630L0 630L0 645L15 645L15 660L0 660L0 675L15 675L15 679L11 679L11 680L64 681L64 680L60 680L60 675L75 675L75 679L68 679L68 680L94 678L94 677L90 677L90 675L102 675L102 676L95 676L95 677L112 675L112 674L105 675L105 660L120 660L118 672L118 673L138 669L138 668L135 668L135 660L150 660L149 665L182 654L180 645L195 645L189 649L189 650L200 646L200 645L195 645L195 630L210 630L210 640L241 623L240 615C253.339 615.037 255.001 613.352 255 600L272 600L272 599L244 597L244 598L255 599L255 600L240 600L243 597L243 596L221 591L221 592C224.401 594.085 224.873 596.098 225 600L210 600L210 588L217 590L217 589L195 585L195 581L198 582L198 581L179 571L180 585L165 585L165 570L178 570L178 569L165 561L165 570L150 570L150 555L158 555L135 531L135 540L120 540L120 525L131 526L112 493L105 495L105 477L104 477L105 480L90 480L90 465L100 467L101 467C104.181 463.012 114.257 466.584 119 466.91C135.336 468.035 150.747 467.054 167 465L167 464L167 457L135 444L135 450L120 450L120 436L123 437L123 436L105 435L105 425L108 426L85 403L75 405L75 394L78 396L73 388L60 390L60 375L65 379L66 379L60 367L59 367L60 375L45 375L45 360L56 361L49 343L45 345L45 338L46 338L46 340L47 340L44 328L30 330L30 315L40 316L38 300L30 300L30 285L35 285L35 289L36 289L36 269L30 270L30 255L45 255L45 270L40 270L40 271L54 277L54 276L45 270L60 270L60 279L56 278L56 279C67.1205 283.538 79.8628 288.748 92 289L92 288L90 285L105 285L105 292L118 293L101 277.985L68 239L60 240L60 229L61 229L62 232L63 232L59 223L45 225L45 210L52 212L53 212L42 174L41 174L42 180L30 180L30 165L39 165L39 169L40 169L38 148L37 148L30 150L30 135L36 135L36 141L37 141L38 120L30 120L30 105L38 105L38 109L39 109L44 79L43 79L41 90L30 90L30 75C34.7447 75 41.1471 73.5995 44 78L45 78L47 69L46 69L46 71L45 71L45 60L49 63L50 63L62 35L64 35C68.0754 44.6254 78.6065 56.8223 87 63L86 60L90 60C89.4574 69.9106 95.2709 75.3027 105 75C104.644 85.4974 109.433 90.3358 120 90C119.693 99.8524 126.141 103.937 133.09 110.084C147.031 122.418 164.471 140.257 182 147L180 135L195 135L195 150L185 149L185 150L197 157L195 150L210 150L210 164L205 162L205 163L215 168L215 167L212 166L212 165L225 165L224 174L255 189L255 180L270 180L268 196L273 197L273 196L271 196L271 195L285 195L285 201L281 200L281 201L301 208L300 195L315 195L315 210L305 209L305 210L316 213L315 210L330 210C330.036 220.277 338.853 221.601 348 222L348 221L345 221L345 210L360 210C360 214.745 361.4 221.147 357 224L357 225L375 225L375 227L371 227L371 228L393 231L393 230L390 230L390 225L405 225L405 232L401 232L401 233L426 235L426 234L420 234L420 225L435 225L435 235L430 235L430 236L442 237L440 220L439 220L439 225L435 225L435 210L438 210L438 219L439 219L438 182L437 182L437 195L435 195L435 180L438 181L440 161L439 161L439 165L435 165L435 150L443 150L446 135L435 135L435 120L450 120L450 105L457 105L455 110L456 110L476 75L465 75L465 60L480 60L479 71L488 60L480 60L480 45L495 45L492 56L503 45L495 45L495 30L510 30L510 39L524 30L524 29L510 30L510 15L525 15L525 28L541 20L540 15L556 13L555 0L540 0L540 15L525 15L525 0L510 0L510 15L495 15L495 0L480 0L480 15L465 15L465 0L450 0L450 15L435 15L435 0L420 0L420 15L405 15L405 0L390 0L390 15L375 15L375 0L360 0L360 15L345 15L345 0L330 0L330 15L315 15L315 0L300 0L300 15L285 15L285 0L270 0L270 15L255 15L255 0L240 0L240 15L225 15L225 0L210 0L210 15L195 15L195 0L180 0L180 15L165 15L165 0L150 0L150 15L135 15L135 0L120 0L120 15L105 15L105 0L90 0L90 15L75 15L75 0L60 0L60 15L45 15L45 0L30 0L30 15L15 15L15 0L0 0z"/>
<path style="fill:#e6e6e6; stroke:none;" d="M15 0L15 15L30 15L30 0L15 0M45 0L45 15L60 15L60 0L45 0M75 0L75 15L90 15L90 0L75 0M105 0L105 15L120 15L120 0L105 0M135 0L135 15L150 15L150 0L135 0M165 0L165 15L180 15L180 0L165 0M195 0L195 15L210 15L210 0L195 0M225 0L225 15L240 15L240 0L225 0M255 0L255 15L270 15L270 0L255 0M285 0L285 15L300 15L300 0L285 0M315 0L315 15L330 15L330 0L315 0M345 0L345 15L360 15L360 0L345 0M375 0L375 15L390 15L390 0L375 0M405 0L405 15L420 15L420 0L405 0M435 0L435 15L450 15L450 0L435 0M465 0L465 15L480 15L480 0L465 0M495 0L495 15L510 15L510 0L495 0M525 0L525 15L540 15L540 0L525 0M555 0L555 12L572 8L572 7L570 0L555 0z"/>
<path style="fill:#ffffff; stroke:none;" d="M570 0L570 7L589 3L570 0z"/>
<path style="fill:#e6e6e6; stroke:none;" d="M585 0L585 2L606 1L585 0z"/>
<path style="fill:#a09f9f; stroke:none;" d="M606 0L606 1L610 1L606 0z"/>
<path style="fill:#555252; stroke:none;" d="M610 0L610 1L613 1L610 0z"/>
<path style="fill:#070404; stroke:none;" d="M443 237C338.444 237 231.314 188.804 151 124.551C129.111 107.039 109.117 87.5268 90.0887 67C81.7449 57.999 72.865 41.5175 62 36C30.0432 104.462 28.2989 184.412 73.8596 248C85.0571 263.628 100.799 284.306 119 292L119 293C88.083 293 63.6732 280.521 36 269C37.4549 339.489 70.4634 409.417 135 443.105C149.296 450.567 166.538 459.658 183 460C177.634 464.671 167.877 465.29 161 466.271C140.429 469.203 121.434 466.615 101 465C108.209 484.306 115.501 502.966 127.438 520C160.361 566.978 214.227 597.808 272 599C201.494 663.895 94.4006 690.804 1 679L1 680C162.958 789.259 386.722 795.146 553 691.575C633.004 641.742 695.835 569.758 740.114 487C772.349 426.753 793.053 359.558 802.576 292C805.73 269.622 807.999 246.581 808 224C808.001 216.04 804.544 198.93 808.042 192.089C813.063 182.271 829.762 173.285 838 165.83C854.174 151.195 868.719 134.37 881.87 117C887.921 109.009 895.424 100.435 899 91C864.154 102.692 831.966 116.304 795 121L795 120C831.891 102.548 865.713 54.639 874 15C861.268 19.0571 849.091 28.6816 837 34.6266C821.671 42.1639 805.217 47.6827 789 52.8858C780.599 55.5813 769.011 60.6405 760.089 60.1682C755.72 59.9369 751.905 53.8217 749 51.0394C741.61 43.9618 733.483 37.3879 725 31.6697C700.698 15.2885 673.126 4.86523 644 1.28625C567.388 -8.12781 491.292 35.4432 458.32 105C438.833 146.111 434.631 192.583 443 237z"/>
<path style="fill:#555252; stroke:none;" d="M633 0L633 1L636 1L633 0z"/>
<path style="fill:#a09f9f; stroke:none;" d="M636 0L636 1L640 1L636 0z"/>
<path style="fill:#e6e6e6; stroke:none;" d="M640 0L640 1C645.613 1.0155 656.221 4.8974 660 0L640 0z"/>
<path style="fill:#ffffff; stroke:none;" d="M657 2L657 3L676 7L675 0L657 2z"/>
<path style="fill:#e6e6e6; stroke:none;" d="M675 0C675.116 4.78265 683.52 16.1806 688.972 10.2037C690.965 8.01898 690 2.72803 690 0L675 0z"/>
<path style="fill:#ffffff; stroke:none;" d="M690 0L688 12L705 15L704 19L736 39L735 30L750 30L750 45L743 45L757 59L750 45L765 45C765 49.5695 766.224 55.2614 762 58L762 59L782 55L782 54L780 45L795 45L792 50L792 51C804.788 49.8834 819.753 42.9959 831 37L831 36L825 38L825 30L840 30L838 32L838 33L850 28L850 27L840 30L840 15L855 15L854 25L875 16L885 15L885 30L870 28L870 45L863 44L845 75L855 75L855 90L840 90L841 80L829 94L840 90L840 105L825 105L826 97L817 105L825 105L823 114L823 115L850 109L850 108L840 110L840 105L855 105L854 107L887 96L885 90L896 90L896 91L894 91L894 92C902.112 90.3083 900 81.6019 900 75L885 75L885 60L900 60L900 45L885 45L885 30L900 30L900 15L885 15L885 0L870 0L870 15L855 15L855 0L840 0L840 15L825 15L825 0L810 0L810 15L795 15L795 0L780 0L780 15L765 15L765 0L750 0L750 15L735 15L735 0L720 0L720 15L705 15L705 0L690 0z"/>
<path style="fill:#e6e6e6; stroke:none;" d="M705 0L705 15L720 15L720 0L705 0M735 0L735 15L750 15L750 0L735 0M765 0L765 15L780 15L780 0L765 0M795 0L795 15L810 15L810 0L795 0M825 0L825 15L840 15L840 0L825 0M855 0L855 15L870 15L870 0L855 0M885 0L885 15L900 15L900 0L885 0z"/>
<path style="fill:#a09f9f; stroke:none;" d="M597.667 1.33331L598.333 1.66669L597.667 1.33331z"/>
<path style="fill:#555252; stroke:none;" d="M599.667 1.33331L600.333 1.66669L599.667 1.33331M645.667 1.33331L646.333 1.66669L645.667 1.33331z"/>
<path style="fill:#a09f9f; stroke:none;" d="M647.667 1.33331L648.333 1.66669L647.667 1.33331z"/>
<path style="fill:#555252; stroke:none;" d="M592.667 2.33331L593.333 2.66669L592.667 2.33331M651.667 2.33331L652.333 2.66669L651.667 2.33331z"/>
<path style="fill:#a09f9f; stroke:none;" d="M653.667 2.33331L654.333 2.66669L653.667 2.33331z"/>
<path style="fill:#555252; stroke:none;" d="M586 3L586 4L589 4L586 3M657.667 3.33331L658.333 3.66669L657.667 3.33331M582.667 4.33331L583.333 4.66669L582.667 4.33331z"/>
<path style="fill:#a09f9f; stroke:none;" d="M662.667 4.33331L663.333 4.66669L662.667 4.33331z"/>
<path style="fill:#555252; stroke:none;" d="M578.667 5.33331L579.333 5.66669L578.667 5.33331z"/>
<path style="fill:#a09f9f; stroke:none;" d="M666.667 5.33331L667.333 5.66669L666.667 5.33331z"/>
<path style="fill:#555252; stroke:none;" d="M574.667 6.33331L575.333 6.66669L574.667 6.33331z"/>
<path style="fill:#a09f9f; stroke:none;" d="M670.667 6.33331L671.333 6.66669L670.667 6.33331M674.667 7.33331L675.333 7.66669L674.667 7.33331M677.667 8.33331L678.333 8.66669L677.667 8.33331z"/>
<path style="fill:#555252; stroke:none;" d="M564.667 9.33331L565.333 9.66669L564.667 9.33331z"/>
<path style="fill:#a09f9f; stroke:none;" d="M680.667 9.33331L681.333 9.66669L680.667 9.33331M683.667 10.3333L684.333 10.6667L683.667 10.3333M559 11L560 12L559 11z"/>
<path style="fill:#555252; stroke:none;" d="M556.667 12.3333L557.333 12.6667L556.667 12.3333z"/>
<path style="fill:#a09f9f; stroke:none;" d="M688.667 12.3333L689.333 12.6667L688.667 12.3333M554 13L555 14L554 13M691 13L692 14L691 13z"/>
<path style="fill:#555252; stroke:none;" d="M873.667 14.3333L874.333 14.6667L873.667 14.3333z"/>
<path style="fill:#e6e6e6; stroke:none;" d="M0 15L0 30L15 30L15 15L0 15M30 15L30 30L15 30L15 45L30 45L30 60L15 60L15 75L30 75L30 60L45 60L45 45C56.2106 45 59.9667 41.5953 60 30L75 30L75 45L90 45L90 60L105 60L105 75L120 75L120 90L135 90L135 105L150 105L150 120L165 120C165 133.534 166.466 135 180 135L180 120L195 120L195 135L210 135L210 150L225 150L225 165L240 165L240 180L255 180L255 165L270 165L270 180L285 180L285 195L300 195L300 180L315 180L315 195L330 195L330 210L345 210L345 195L360 195L360 210L375 210L375 225L390 225L390 210L405 210L405 225L420 225L420 210L435 210L435 195L420 195L420 180L435 180L435 165L420 165L420 150L435 150L435 135L420 135L420 120L435 120L435 105L450 105L450 90L465 90L465 75L450 75L450 60L465 60L465 45L480 45L480 30L495 30L495 15L480 15L480 30L465 30L465 15L450 15L450 30L435 30L435 15L420 15L420 30L405 30L405 15L390 15L390 30L375 30L375 15L360 15L360 30L345 30L345 15L330 15L330 30L315 30L315 15L300 15L300 30L285 30L285 15L270 15L270 30L255 30L255 15L240 15L240 30L225 30L225 15L210 15L210 30L195 30L195 15L180 15L180 30L165 30L165 15L150 15L150 30L135 30L135 15L120 15L120 30L105 30L105 15L90 15L90 30L75 30L75 15L60 15L60 30L45 30L45 15L30 15M510 15L510 30L525 30L526 29L525 15L510 15M540 15L541 20L547 15L540 15z"/>
<path style="fill:#555252; stroke:none;" d="M549.667 15.3333L550.333 15.6667L549.667 15.3333z"/>
<path style="fill:#a09f9f; stroke:none;" d="M695.667 15.3333L696.333 15.6667L695.667 15.3333z"/>
<path style="fill:#e6e6e6; stroke:none;" d="M699 15L704 19L705 15L699 15M720 15C720 27.3827 722.542 30 735 30L735 15L720 15M750 15L750 30L765 30L765 45L780 45L780 30L795 30L795 45L810 45L810 30L825 30L825 15L810 15L810 30L795 30L795 15L780 15L780 30L765 30L765 15L750 15M840 15L840 30C850.361 28.9399 854.993 25.2828 855 15L840 15M874 15L871 30L885 30L885 15L874 15z"/>
<path style="fill:#555252; stroke:none;" d="M547.667 16.3333L548.333 16.6667L547.667 16.3333z"/>
<path style="fill:#a09f9f; stroke:none;" d="M698 16L699 17L698 16M868 17L869 18L868 17M873.333 17.6667L873.667 18.3333L873.333 17.6667M704 19L705 20L704 19M865 19L866 20L865 19M539 20L540 21L539 20M706 20L707 21L706 20M863 20L864 21L863 20z"/>
<path style="fill:#555252; stroke:none;" d="M537.667 21.3333L538.333 21.6667L537.667 21.3333z"/>
<path style="fill:#a09f9f; stroke:none;" d="M707.667 21.3333L708.333 21.6667L707.667 21.3333M858 23L859 24L858 23M871.333 23.6667L871.667 24.3333L871.333 23.6667M532 24L533 25L532 24M713 24L714 25L713 24M856 24L857 25L856 24M715 25L716 26L715 25M854 25L855 26L854 25z"/>
<path style="fill:#555252; stroke:none;" d="M852.667 26.3333L853.333 26.6667L852.667 26.3333z"/>
<path style="fill:#a09f9f; stroke:none;" d="M870.333 26.6667L870.667 27.3333L870.333 26.6667M527 27L528 28L527 27M718 27L719 28L718 27z"/>
<path style="fill:#555252; stroke:none;" d="M850.667 27.3333L851.333 27.6667L850.667 27.3333z"/>
<path style="fill:#a09f9f; stroke:none;" d="M721 29L722 30L721 29z"/>
<path style="fill:#ffffff; stroke:none;" d="M30 30L30 45L45 45L45 30L30 30M90 30L90 45L105 45L105 60L120 60L120 75L135 75L135 90L150 90L150 105L165 105L165 120L180 120L180 105L195 105L195 120L210 120L210 135L225 135L225 150L240 150L240 165L255 165L255 150L270 150L270 165L285 165L285 180L300 180L300 165L315 165L315 180L330 180L330 195L345 195L345 180L360 180L360 195L375 195L375 210L390 210L390 195L405 195L405 210L420 210L420 195L405 195L405 180L420 180L420 165L405 165L405 150L420 150L420 135L405 135L405 120L420 120L420 105L435 105L435 90L450 90L450 75L435 75L435 60L450 60L450 45L465 45L465 30L450 30L450 45L435 45L435 30L420 30L420 45L405 45L405 30L390 30L390 45L375 45L375 30L360 30L360 45L345 45L345 30L330 30L330 45L315 45L315 30L300 30L300 45L285 45L285 30L270 30L270 45L255 45L255 30L240 30L240 45L225 45L225 30L210 30L210 45L195 45L195 30L180 30L180 45L165 45L165 30L150 30L150 45L135 45L135 30L120 30L120 45L105 45L105 30L90 30z"/>
<path style="fill:#e6e6e6; stroke:none;" d="M495 30L495 45C502.03 45.0528 505.265 44.2859 511 40L510 30L495 30M735 30C735.021 37.7148 737.088 40.3761 742 46L750 45L750 30L735 30M825 30L825 38C830.923 36.6669 837.003 35.902 840 30L825 30M885 30L885 45L900 45L900 30L885 30z"/>
<path style="fill:#a09f9f; stroke:none;" d="M521 31L522 32L521 31M724 31L725 32L724 31M868.333 31.6667L868.667 32.3333L868.333 31.6667M518 33L519 34L518 33M727 33L728 34L727 33z"/>
<path style="fill:#555252; stroke:none;" d="M838.667 33.3333L839.333 33.6667L838.667 33.3333z"/>
<path style="fill:#e6e6e6; stroke:none;" d="M868 33L864 45L870 45L870 33L868 33z"/>
<path style="fill:#555252; stroke:none;" d="M836.667 34.3333L837.333 34.6667L836.667 34.3333z"/>
<path style="fill:#a09f9f; stroke:none;" d="M62.6667 35.3333L63.3333 35.6667L62.6667 35.3333z"/>
<path style="fill:#555252; stroke:none;" d="M834.667 35.3333L835.333 35.6667L834.667 35.3333z"/>
<path style="fill:#a09f9f; stroke:none;" d="M514 36L515 37L514 36M731 36L732 37L731 36M61 37L62 38L61 37M865.333 38.6667L865.667 39.3333L865.333 38.6667M60 39L61 40L60 39M66 39L67 40L66 39M735 39L736 40L735 39z"/>
<path style="fill:#555252; stroke:none;" d="M825.667 39.3333L826.333 39.6667L825.667 39.3333z"/>
<path style="fill:#a09f9f; stroke:none;" d="M823 40L824 41L823 40M864.333 40.6667L864.667 41.3333L864.333 40.6667M818 42L819 43L818 42M863.333 42.6667L863.667 43.3333L863.333 42.6667M69 43L70 44L69 43M70 44L71 45L70 44M741 44L742 45L741 44M813 44L814 45L813 44z"/>
<path style="fill:#e6e6e6; stroke:none;" d="M0 45L0 60L15 60L15 45L0 45z"/>
<path style="fill:#a09f9f; stroke:none;" d="M71 45L72 46L71 45z"/>
<path style="fill:#e6e6e6; stroke:none;" d="M120 45L120 60L135 60L135 75L150 75L150 90L165 90L165 105L180 105L180 90L195 90L195 105L210 105L210 120L225 120L225 135L240 135L240 150L255 150L255 135L270 135L270 150L285 150L285 165L300 165L300 150L315 150L315 165L330 165L330 180L345 180L345 165L360 165L360 180L375 180L375 195L390 195L390 180L405 180L405 165L390 165L390 150L405 150L405 135L390 135L390 120L405 120L405 105L420 105L420 90L435 90L435 75L420 75L420 60L435 60L435 45L420 45L420 60L405 60L405 45L390 45L390 60L375 60L375 45L360 45L360 60L345 60L345 45L330 45L330 60L315 60L315 45L300 45L300 60L285 60L285 45L270 45L270 60L255 60L255 45L240 45L240 60L225 60L225 45L210 45L210 60L195 60L195 45L180 45L180 60L165 60L165 45L150 45L150 60L135 60L135 45L120 45M480 45L480 60C490.263 60.0771 494.872 55.92 495 45L480 45M750 45L757 60L764 60L764 59L762 59L762 58C766.853 56.9601 765 49.1017 765 45L750 45M780 45L780 54L795 50L795 45L780 45z"/>
<path style="fill:#555252; stroke:none;" d="M810.667 45.3333L811.333 45.6667L810.667 45.3333z"/>
<path style="fill:#a09f9f; stroke:none;" d="M862 45L863 46L862 45z"/>
<path style="fill:#e6e6e6; stroke:none;" d="M870 45L870 60L855 60L855 75L870 75L870 90L855 90L855 105C866.357 104.481 870 100.953 870 90L885 90L885 75L870 75L870 60L885 60L885 45L870 45z"/>
<path style="fill:#a09f9f; stroke:none;" d="M502 46L503 47L502 46M743 46L744 47L743 46M56 47L57 48L56 47M501 47L502 48L501 47M805 47L806 48L805 47M500 48L501 49L500 48z"/>
<path style="fill:#555252; stroke:none;" d="M802.667 48.3333L803.333 48.6667L802.667 48.3333z"/>
<path style="fill:#a09f9f; stroke:none;" d="M55 49L56 50L55 49M74 49L75 50L74 49M799 49L800 50L799 49M75 50L76 51L75 50z"/>
<path style="fill:#555252; stroke:none;" d="M796.667 50.3333L797.333 50.6667L796.667 50.3333M54.3333 51.6667L54.6667 52.3333L54.3333 51.6667z"/>
<path style="fill:#a09f9f; stroke:none;" d="M792 51L792 52L795 52L792 51z"/>
<path style="fill:#555252; stroke:none;" d="M786.667 53.3333L787.333 53.6667L786.667 53.3333z"/>
<path style="fill:#a09f9f; stroke:none;" d="M782 54L782 55L785 55L782 54M857 54L858 55L857 54M79 55L80 56L79 55z"/>
<path style="fill:#555252; stroke:none;" d="M779.667 55.3333L780.333 55.6667L779.667 55.3333z"/>
<path style="fill:#a09f9f; stroke:none;" d="M52 56L53 57L52 56M80 56L81 57L80 56z"/>
<path style="fill:#555252; stroke:none;" d="M775.667 56.3333L776.333 56.6667L775.667 56.3333z"/>
<path style="fill:#a09f9f; stroke:none;" d="M856 56L857 57L856 56M81 57L82 58L81 57M771 57L771 58L774 58L771 57M767.667 58.3333L768.333 58.6667L767.667 58.3333M854 59L855 60L854 59z"/>
<path style="fill:#e6e6e6; stroke:none;" d="M45 60L45 71L46 71L49 60L45 60M86 60L88 66L89 66L90 60L86 60z"/>
<path style="fill:#ffffff; stroke:none;" d="M150 60L150 75L165 75L165 90L180 90L180 75L195 75L195 90L210 90L210 105L225 105L225 120L240 120L240 135L255 135L255 120L270 120L270 135L285 135L285 150L300 150L300 135L315 135L315 150L330 150L330 165L345 165L345 150L360 150L360 165L375 165L375 180L390 180L390 165L375 165L375 150L390 150L390 135L375 135L375 120L390 120L390 105L405 105L405 90L420 90L420 75L405 75L405 60L390 60L390 75L375 75L375 60L360 60L360 75L345 75L345 60L330 60L330 75L315 75L315 60L300 60L300 75L285 75L285 60L270 60L270 75L255 75L255 60L240 60L240 75L225 75L225 60L210 60L210 75L195 75L195 60L180 60L180 75L165 75L165 60L150 60z"/>
<path style="fill:#e6e6e6; stroke:none;" d="M465 60L465 75C477.131 75 479.992 72.3745 480 60L465 60z"/>
<path style="fill:#a09f9f; stroke:none;" d="M757 60L757 61L761 61L757 60z"/>
<path style="fill:#e6e6e6; stroke:none;" d="M885 60L885 75L900 75L900 60L885 60z"/>
<path style="fill:#555252; stroke:none;" d="M50.3333 61.6667L50.6667 62.3333L50.3333 61.6667z"/>
<path style="fill:#a09f9f; stroke:none;" d="M851 64L852 65L851 64z"/>
<path style="fill:#555252; stroke:none;" d="M48.3333 66.6667L48.6667 67.3333L48.3333 66.6667z"/>
<path style="fill:#a09f9f; stroke:none;" d="M89 66L90 67L89 66M483 66L484 67L483 66M482 67L483 68L482 67M849 67L850 68L849 67z"/>
<path style="fill:#555252; stroke:none;" d="M47.3333 69.6667L47.6667 70.3333L47.3333 69.6667M46 72L46 75L47 75L46 72z"/>
<path style="fill:#a09f9f; stroke:none;" d="M844 74L845 75L844 74z"/>
<path style="fill:#e6e6e6; stroke:none;" d="M0 75L0 90L15 90L15 75L0 75M30 75L30 90L41 90L45 80L44 75L30 75z"/>
<path style="fill:#a09f9f; stroke:none;" d="M97 75L98 76L97 75z"/>
<path style="fill:#e6e6e6; stroke:none;" d="M99 75L104 82L105 75L99 75M210 75L210 90L225 90L225 105L240 105L240 120L255 120L255 105L270 105L270 120L285 120L285 135L300 135L300 120L315 120L315 135L330 135L330 150L345 150L345 135L360 135L360 150L375 150L375 135L360 135L360 120L375 120L375 105L390 105L390 90L405 90L405 75L390 75L390 90L375 90L375 75L360 75L360 90L345 90L345 75L330 75L330 90L315 90L315 75L300 75L300 90L285 90L285 75L270 75L270 90L255 90L255 75L240 75L240 90L225 90L225 75L210 75z"/>
<path style="fill:#a09f9f; stroke:none;" d="M476 75L477 76L476 75z"/>
<path style="fill:#e6e6e6; stroke:none;" d="M840 90L855 90L855 75C843.553 75 840.032 78.2684 840 90z"/>
<path style="fill:#555252; stroke:none;" d="M45.3333 76.6667L45.6667 77.3333L45.3333 76.6667z"/>
<path style="fill:#a09f9f; stroke:none;" d="M841 78L842 79L841 78M473 79L474 80L473 79M840 79L841 80L840 79z"/>
<path style="fill:#555252; stroke:none;" d="M44.3333 80.6667L44.6667 81.3333L44.3333 80.6667z"/>
<path style="fill:#a09f9f; stroke:none;" d="M104 82L105 83L104 82M471 82L472 83L471 82z"/>
<path style="fill:#555252; stroke:none;" d="M43.3333 83.6667L43.6667 84.3333L43.3333 83.6667z"/>
<path style="fill:#a09f9f; stroke:none;" d="M836 84L837 85L836 84M469 85L470 86L469 85M835 85L836 86L835 85M42 87L42 90L43 90L42 87M111 89L112 90L111 89z"/>
<path style="fill:#e6e6e6; stroke:none;" d="M15 90L15 105L30 105L30 90L15 90z"/>
<path style="fill:#a09f9f; stroke:none;" d="M112 90L113 91L112 90z"/>
<path style="fill:#e6e6e6; stroke:none;" d="M114 90L120 96L120 90L114 90z"/>
<path style="fill:#ffffff; stroke:none;" d="M240 90L240 105L255 105L255 90L240 90M270 90L270 105L285 105L285 120L300 120L300 105L315 105L315 120L330 120L330 135L345 135L345 120L360 120L360 105L375 105L375 90L360 90L360 105L345 105L345 90L330 90L330 105L315 105L315 90L300 90L300 105L285 105L285 90L270 90z"/>
<path style="fill:#a09f9f; stroke:none;" d="M466 90L467 91L466 90z"/>
<path style="fill:#e6e6e6; stroke:none;" d="M825 105L840 105L840 90C830.205 90.1157 825.08 95.4475 825 105M885 90L885 95L896 91L885 90z"/>
<path style="fill:#a09f9f; stroke:none;" d="M899.333 90.6667L899.667 91.3333L899.333 90.6667M113 91L114 92L113 91M41 92L41 95L42 95L41 92z"/>
<path style="fill:#555252; stroke:none;" d="M894.667 92.3333L895.333 92.6667L894.667 92.3333z"/>
<path style="fill:#e6e6e6; stroke:none;" d="M899 92L892 105L900 105L899 92z"/>
<path style="fill:#a09f9f; stroke:none;" d="M828 93L829 94L828 93M827 94L828 95L827 94M890 94L891 95L890 94M897 94L898 95L897 94M463 95L464 96L463 95z"/>
<path style="fill:#555252; stroke:none;" d="M887.667 95.3333L888.333 95.6667L887.667 95.3333z"/>
<path style="fill:#a09f9f; stroke:none;" d="M825 96L826 97L825 96z"/>
<path style="fill:#555252; stroke:none;" d="M885.667 96.3333L886.333 96.6667L885.667 96.3333z"/>
<path style="fill:#a09f9f; stroke:none;" d="M462 97L463 98L462 97M895 97L896 98L895 97z"/>
<path style="fill:#555252; stroke:none;" d="M40 98L40 101L41 101L40 98M880.667 98.3333L881.333 98.6667L880.667 98.3333z"/>
<path style="fill:#a09f9f; stroke:none;" d="M461 99L462 100L461 99M875 100L876 101L875 100M893 100L894 101L893 100z"/>
<path style="fill:#555252; stroke:none;" d="M872.667 101.333L873.333 101.667L872.667 101.333M869.667 102.333L870.333 102.667L869.667 102.333z"/>
<path style="fill:#a09f9f; stroke:none;" d="M891 103L892 104L891 103M816 104L815 106L816 104M864 104L865 105L864 104z"/>
<path style="fill:#ffffff; stroke:none;" d="M885 120C875.857 119.53 869.716 131.784 864.166 138C847.632 156.516 826.962 170.84 810.318 188.805C806.826 192.573 806.076 206.571 810 210L810 225C805.435 228.989 808 243.132 808 249L809 249L809 240L810 240L810 255L808 255L808 251L807 251L806 274L807 274L807 270L810 270L810 285L805 283L804 283L802 303L803 303L803 300L810 300L810 315L801 315L801 310L800 310L796 335L797 335C798.853 328.897 804.609 330 810 330L810 345L795 345L796 336L795 336L792 352L793 352L794 345L795 345L795 360L791 360L792 353L791 353L783 385L784 385L786 375L795 375L795 390L781 388L780 405L776 404L769 425L770 425L771 420L780 420L780 435L766 435L767 430L766 430L763 440L764 440L764 438L765 438L765 450C753.707 450.134 744.818 472.802 743 483L744 483L750 480L750 495L736 494L733 501C736.441 501 735 507.121 735 510C723.146 509.631 712.949 529.581 709 540L720 540L720 555L705 555L705 546L698 556L705 555L705 570L690 570L690 585C684.649 585 675.988 582.856 673 588C676.585 588 675 596.875 675 600L663 598C658.684 603.232 659.999 608.562 660 615L649 613C638.212 623.788 629.998 629.352 630 645C623.273 645 616.611 643.238 612 649L615 648L615 660L600 660L600 675L585 675L587 669L579 675L585 675L585 690L570 690L570 681L535 702L535 703L540 701L540 705L524 708L525 720L510 720L510 716L496 722L496 723L510 720L510 735L495 735L495 723L479 729L480 735L469 735L469 734L474 733L474 732L464 735L465 750L450 750L452 741L452 740L434 745L435 750L423 750L423 749L426 749L426 748L415 750L415 751L420 750L420 765L405 765C405.001 757.04 405.688 753.745 414 752L414 751L388 756L388 757L390 765L375 765L377 760L377 759L359 761L360 765L345 765L345 764L350 764L350 763L314 765L314 766L900 766L900 765L885 765L885 750L900 750L900 735L885 735L885 720L900 720L900 705L885 705L885 690L900 690L900 675L885 675L885 660L900 660L900 645L885 645L885 630L900 630L900 615L885 615L885 600L900 600L900 585L885 585L885 570L900 570L900 555L885 555L885 540L900 540L900 525L885 525L885 510L900 510L900 495L885 495L885 480L900 480L900 465L885 465L885 450L900 450L900 435L885 435L885 420L900 420L900 405L885 405L885 390L900 390L900 375L885 375L885 360L900 360L900 345L885 345L885 330L900 330L900 315L885 315L885 300L900 300L900 285L885 285L885 270L900 270L900 255L885 255L885 240L900 240L900 225L885 225L885 210L900 210L900 195L885 195L885 180L900 180L900 165L885 165L885 150L900 150L900 135L885 135L885 120L900 120L900 105C889.633 104.922 884.388 108.847 885 120z"/>
<path style="fill:#e6e6e6; stroke:none;" d="M0 105L0 120L15 120L15 105L0 105M30 105L30 120L38 120L38 105L30 105z"/>
<path style="fill:#555252; stroke:none;" d="M39 105L39 108L40 108L39 105z"/>
<path style="fill:#a09f9f; stroke:none;" d="M128 105L129 106L128 105z"/>
<path style="fill:#e6e6e6; stroke:none;" d="M330 105L330 120L345 120L345 105L330 105M450 105L450 120L435 120L435 135L446 137L447 137L457 105L450 105M825 105C822.706 105.002 820.266 104.81 817.999 105.228C799.503 108.638 819.427 126.213 824.486 112.66C825.355 110.332 824.998 107.437 825 105M840 105L840 110L855 108L855 105L840 105z"/>
<path style="fill:#555252; stroke:none;" d="M861.667 105.333L862.333 105.667L861.667 105.333z"/>
<path style="fill:#a09f9f; stroke:none;" d="M129 106L130 107L129 106M858 106L859 107L858 106M456 109L457 110L456 109M810 109L811 110L810 109z"/>
<path style="fill:#555252; stroke:none;" d="M848.667 109.333L849.333 109.667L848.667 109.333z"/>
<path style="fill:#ffffff; stroke:none;" d="M797 119L797 120L812 118L812 117L811 110L797 119z"/>
<path style="fill:#555252; stroke:none;" d="M844.667 110.333L845.333 110.667L844.667 110.333z"/>
<path style="fill:#a09f9f; stroke:none;" d="M886 110L887 111L886 110M38 111L38 114L39 114L38 111z"/>
<path style="fill:#555252; stroke:none;" d="M840 111L840 112L843 112L840 111z"/>
<path style="fill:#a09f9f; stroke:none;" d="M806 112L807 113L806 112z"/>
<path style="fill:#555252; stroke:none;" d="M837.667 112.333L838.333 112.667L837.667 112.333z"/>
<path style="fill:#a09f9f; stroke:none;" d="M137 113L138 114L137 113z"/>
<path style="fill:#555252; stroke:none;" d="M454.333 113.667L454.667 114.333L454.333 113.667z"/>
<path style="fill:#a09f9f; stroke:none;" d="M805 113L806 114L805 113z"/>
<path style="fill:#555252; stroke:none;" d="M833.667 113.333L834.333 113.667L833.667 113.333z"/>
<path style="fill:#a09f9f; stroke:none;" d="M884 113L885 114L884 113z"/>
<path style="fill:#555252; stroke:none;" d="M38 114L38 119L39 119L38 114z"/>
<path style="fill:#a09f9f; stroke:none;" d="M138 114L139 115L138 114M828 114L828 115L831 115L828 114M883 114L884 115L883 114M802 115L803 116L802 115M823 115L823 116L826 116L823 115z"/>
<path style="fill:#e6e6e6; stroke:none;" d="M883 115L881 120L885 120L885 115L883 115z"/>
<path style="fill:#a09f9f; stroke:none;" d="M453 116L454 117L453 116M799 117L800 118L799 117M813.667 117.333L814.333 117.667L813.667 117.333z"/>
<path style="fill:#555252; stroke:none;" d="M815.667 117.333L816.333 117.667L815.667 117.333z"/>
<path style="fill:#a09f9f; stroke:none;" d="M881 117L882 118L881 117M143 118L144 119L143 118M808 118L808 119L811 119L808 118M880 118L881 119L880 118M144 119L145 120L144 119M796 119L795 121L797 121L796 119M802 119L802 120L805 120L802 119z"/>
<path style="fill:#e6e6e6; stroke:none;" d="M15 120L15 135L30 135L30 120L15 120z"/>
<path style="fill:#555252; stroke:none;" d="M797.667 120.333L798.333 120.667L797.667 120.333z"/>
<path style="fill:#e6e6e6; stroke:none;" d="M885 120L885 135L900 135L900 120L885 120z"/>
<path style="fill:#a09f9f; stroke:none;" d="M451 121L452 122L451 121M148 122L149 123L148 122M877 122L878 123L877 122M149 123L150 124L149 123M876 123L877 124L876 123M150 124L151 125L150 124z"/>
<path style="fill:#555252; stroke:none;" d="M449.333 126.667L449.667 127.333L449.333 126.667z"/>
<path style="fill:#a09f9f; stroke:none;" d="M154 127L155 128L154 127M873 127L874 128L873 127M872 128L873 129L872 128M159 131L160 132L159 131z"/>
<path style="fill:#555252; stroke:none;" d="M447.333 132.667L447.667 133.333L447.333 132.667z"/>
<path style="fill:#a09f9f; stroke:none;" d="M869 132L870 133L869 132M868 133L869 134L868 133M163 134L164 135L163 134M867 134L868 135L867 134z"/>
<path style="fill:#e6e6e6; stroke:none;" d="M0 135L0 150L15 150L15 135L0 135M30 135L30 150C37.3688 149.912 37.9804 146.819 38 140L36 141L36 135L30 135z"/>
<path style="fill:#a09f9f; stroke:none;" d="M37 135L37 140L38 140L37 135z"/>
<path style="fill:#e6e6e6; stroke:none;" d="M180 135C180.001 146.446 183.46 149.968 195 150L195 135L180 135M870 135L870 150L855 150L855 165L840 165L840 180L825 180L825 195L810 195L810 210L825 210L825 225L810 225L810 240L825 240L825 255L810 255L810 270L825 270L825 285L810 285L810 300L825 300L825 315L810 315L810 330L825 330L825 345L810 345L810 360L795 360L795 375L810 375L810 390L795 390L795 405L780 405L780 420L795 420L795 435L780 435L780 450L765 450L765 465C752.335 465 750 467.135 750 480L765 480L765 495L750 495L750 510L735 510L735 525L720 525L720 540L735 540L735 555L720 555L720 570L705 570L705 585L690 585L690 600L675 600L675 615L660 615L660 630L645 630L645 620L635 630L645 630L645 645L630 645L630 660L615 660L615 675L600 675L600 690L585 690L585 705L570 705L570 690C556.531 690 555 691.596 555 705L540 705L540 720L525 720L525 735L510 735L510 750L495 750L495 735L480 735L480 750L465 750L465 765L480 765L480 750L495 750L495 765L510 765L510 750L525 750L525 765L540 765L540 750L555 750L555 765L570 765L570 750L585 750L585 765L600 765L600 750L615 750L615 765L630 765L630 750L645 750L645 765L660 765L660 750L675 750L675 765L690 765L690 750L705 750L705 765L720 765L720 750L735 750L735 765L750 765L750 750L765 750L765 765L780 765L780 750L795 750L795 765L810 765L810 750L825 750L825 765L840 765L840 750L855 750L855 765L870 765L870 750L885 750L885 735L870 735L870 720L885 720L885 705L870 705L870 690L885 690L885 675L870 675L870 660L885 660L885 645L870 645L870 630L885 630L885 615L870 615L870 600L885 600L885 585L870 585L870 570L885 570L885 555L870 555L870 540L885 540L885 525L870 525L870 510L885 510L885 495L870 495L870 480L885 480L885 465L870 465L870 450L885 450L885 435L870 435L870 420L885 420L885 405L870 405L870 390L885 390L885 375L870 375L870 360L885 360L885 345L870 345L870 330L885 330L885 315L870 315L870 300L885 300L885 285L870 285L870 270L885 270L885 255L870 255L870 240L885 240L885 225L870 225L870 210L885 210L885 195L870 195L870 180L885 180L885 165L870 165L870 150L885 150L885 135L870 135z"/>
<path style="fill:#a09f9f; stroke:none;" d="M167 137L168 138L167 137z"/>
<path style="fill:#555252; stroke:none;" d="M445.333 139.667L445.667 140.333L445.333 139.667z"/>
<path style="fill:#a09f9f; stroke:none;" d="M171 140L172 141L171 140M861 141L862 142L861 141M174 142L175 143L174 142M860 142L861 143L860 142z"/>
<path style="fill:#555252; stroke:none;" d="M444.333 143.667L444.667 144.333L444.333 143.667z"/>
<path style="fill:#a09f9f; stroke:none;" d="M859 143L860 144L859 143M178 145L179 146L178 145z"/>
<path style="fill:#555252; stroke:none;" d="M38 147L38 150L39 150L38 147z"/>
<path style="fill:#a09f9f; stroke:none;" d="M181 147L182 148L181 147z"/>
<path style="fill:#555252; stroke:none;" d="M443.333 147.667L443.667 148.333L443.333 147.667z"/>
<path style="fill:#a09f9f; stroke:none;" d="M184 149L185 150L184 149z"/>
<path style="fill:#e6e6e6; stroke:none;" d="M15 150L15 165L30 165L30 150L15 150z"/>
<path style="fill:#a09f9f; stroke:none;" d="M38 150L38 153L39 153L38 150z"/>
<path style="fill:#e6e6e6; stroke:none;" d="M195 150C195.62 159.236 202.395 161.16 210 164L210 150L195 150M435 150L435 165L439 165L439 161L440 161L440 164L441 164L443 150L435 150M885 150L885 165L900 165L900 150L885 150z"/>
<path style="fill:#a09f9f; stroke:none;" d="M187 151L188 152L187 151M442 151L442 154L443 154L442 151M190 153L191 154L190 153M193 155L194 156L193 155M441.333 156.667L441.667 157.333L441.333 156.667z"/>
<path style="fill:#555252; stroke:none;" d="M39.3333 157.667L39.6667 158.333L39.3333 157.667z"/>
<path style="fill:#a09f9f; stroke:none;" d="M196 157L197 158L196 157z"/>
<path style="fill:#555252; stroke:none;" d="M441.333 158.667L441.667 159.333L441.333 158.667z"/>
<path style="fill:#a09f9f; stroke:none;" d="M39.3333 159.667L39.6667 160.333L39.3333 159.667M204 162L205 163L204 162z"/>
<path style="fill:#555252; stroke:none;" d="M40 164L40 167L41 167L40 164M440.333 164.667L440.667 165.333L440.333 164.667z"/>
<path style="fill:#e6e6e6; stroke:none;" d="M0 165L0 180L15 180L15 165L0 165M30 165L30 180L42 180L41 167L40 167L40 169L39 169L39 165L30 165z"/>
<path style="fill:#a09f9f; stroke:none;" d="M209 165L210 166L209 165z"/>
<path style="fill:#e6e6e6; stroke:none;" d="M212 165L212 166L225 173L225 165L212 165z"/>
<path style="fill:#ffffff; stroke:none;" d="M855 165L855 180L840 180L840 195L825 195L825 210L840 210L840 225L825 225L825 240L840 240L840 255L825 255L825 270L840 270L840 285L825 285L825 300L840 300L840 315L825 315L825 330L840 330L840 345L825 345L825 360L810 360L810 375L825 375L825 390L810 390L810 405L795 405L795 420L810 420L810 435L795 435L795 450L780 450L780 465L765 465L765 480L780 480L780 495L765 495L765 510L750 510L750 525L735 525L735 540L750 540L750 555L735 555L735 570L720 570L720 585L705 585L705 600L690 600L690 615L675 615L675 630L660 630L660 645L645 645L645 660L630 660L630 675L615 675L615 690L600 690L600 705L585 705L585 720L570 720L570 705L555 705L555 720L540 720L540 735L525 735L525 750L540 750L540 735L555 735L555 750L570 750L570 735L585 735L585 750L600 750L600 735L615 735L615 750L630 750L630 735L645 735L645 750L660 750L660 735L675 735L675 750L690 750L690 735L705 735L705 750L720 750L720 735L735 735L735 750L750 750L750 735L765 735L765 750L780 750L780 735L795 735L795 750L810 750L810 735L825 735L825 750L840 750L840 735L855 735L855 750L870 750L870 735L855 735L855 720L870 720L870 705L855 705L855 690L870 690L870 675L855 675L855 660L870 660L870 645L855 645L855 630L870 630L870 615L855 615L855 600L870 600L870 585L855 585L855 570L870 570L870 555L855 555L855 540L870 540L870 525L855 525L855 510L870 510L870 495L855 495L855 480L870 480L870 465L855 465L855 450L870 450L870 435L855 435L855 420L870 420L870 405L855 405L855 390L870 390L870 375L855 375L855 360L870 360L870 345L855 345L855 330L870 330L870 315L855 315L855 300L870 300L870 285L855 285L855 270L870 270L870 255L855 255L855 240L870 240L870 225L855 225L855 210L870 210L870 195L855 195L855 180L870 180L870 165L855 165z"/>
<path style="fill:#a09f9f; stroke:none;" d="M214 168L215 169L214 168M834 168L835 169L834 168M215.667 169.333L216.333 169.667L215.667 169.333M833 169L834 170L833 169z"/>
<path style="fill:#555252; stroke:none;" d="M41.3333 170.667L41.6667 171.333L41.3333 170.667z"/>
<path style="fill:#a09f9f; stroke:none;" d="M439 170L439 173L440 173L439 170M832 170L833 171L832 170M41.3333 172.667L41.6667 173.333L41.3333 172.667M221 172L222 173L221 172M222.667 173.333L223.333 173.667L222.667 173.333z"/>
<path style="fill:#555252; stroke:none;" d="M439 173L439 176L440 176L439 173M42.3333 175.667L42.6667 176.333L42.3333 175.667z"/>
<path style="fill:#a09f9f; stroke:none;" d="M228 176L229 177L228 176M825 176L826 177L825 176M230 177L231 178L230 177M824 177L825 178L824 177M232 178L233 179L232 178M233.667 179.333L234.333 179.667L233.667 179.333z"/>
<path style="fill:#e6e6e6; stroke:none;" d="M15 180L15 195L30 195L30 210L15 210L15 225L30 225L30 240L15 240L15 255L30 255L30 240L45 240L45 255L60 255L60 270L75 270C75 283.534 76.4662 285 90 285L90 270L75 270L75 255L60 255L60 240L45 240L45 225L30 225L30 210L45 210L45 195L30 195L30 180L15 180z"/>
<path style="fill:#a09f9f; stroke:none;" d="M43.3333 180.667L43.6667 181.333L43.3333 180.667M235.667 180.333L236.333 180.667L235.667 180.333z"/>
<path style="fill:#e6e6e6; stroke:none;" d="M255 180C255.001 190.429 259.416 194.07 270 195L270 180L255 180M435 180L435 195L437 195L439 180L435 180M885 180L885 195L900 195L900 180L885 180z"/>
<path style="fill:#a09f9f; stroke:none;" d="M237.667 181.333L238.333 181.667L237.667 181.333M819 181L820 182L819 181M438 182L438 202L439 202L438 182M818 182L819 183L818 182M44.3333 184.667L44.6667 185.333L44.3333 184.667M814 185L815 186L814 185M45 187L45 190L46 190L45 187M251.667 188.333L252.333 188.667L251.667 188.333M253.667 189.333L254.333 189.667L253.667 189.333M809 189L810 190L809 189M46.3333 191.667L46.6667 192.333L46.3333 191.667z"/>
<path style="fill:#555252; stroke:none;" d="M807 191L807 198L808 198L807 191z"/>
<path style="fill:#a09f9f; stroke:none;" d="M47.3333 194.667L47.6667 195.333L47.3333 194.667M264.667 194.333L265.333 194.667L264.667 194.333z"/>
<path style="fill:#e6e6e6; stroke:none;" d="M0 195L0 210L15 210L15 195L0 195z"/>
<path style="fill:#a09f9f; stroke:none;" d="M267 195L268 196L267 195z"/>
<path style="fill:#e6e6e6; stroke:none;" d="M271 195L271 196L285 201L285 195L271 195M300 195C300 207.634 302.215 209.973 315 210L315 195L300 195M840 195L840 210L855 210L855 195L840 195z"/>
<path style="fill:#a09f9f; stroke:none;" d="M48.3333 197.667L48.6667 198.333L48.3333 197.667M271.667 197.333L272.333 197.667L271.667 197.333M278.667 200.333L279.333 200.667L278.667 200.333M283.667 202.333L284.333 202.667L283.667 202.333M288.667 204.333L289.333 204.667L288.667 204.333M51.3333 205.667L51.6667 206.333L51.3333 205.667M296.667 207.333L297.333 207.667L296.667 207.333M299.667 208.333L300.333 208.667L299.667 208.333M302.667 209.333L303.333 209.667L302.667 209.333z"/>
<path style="fill:#e6e6e6; stroke:none;" d="M45 210L45 225L58 225C57.2476 216.437 54.1315 210.103 45 210z"/>
<path style="fill:#a09f9f; stroke:none;" d="M53.3333 210.667L53.6667 211.333L53.3333 210.667z"/>
<path style="fill:#e6e6e6; stroke:none;" d="M315 210C317.272 215.794 324.539 216.45 330 218L330 210L315 210M345 210L347 223L360 224L360 210L345 210M435 210L435 225L439 225L440 218C436.641 218 438 212.797 438 210L435 210M808 210L810 225L810 210L808 210M885 210L885 225L900 225L900 210L885 210z"/>
<path style="fill:#555252; stroke:none;" d="M439 212L439 215L440 215L439 212z"/>
<path style="fill:#a09f9f; stroke:none;" d="M314.667 213.333L315.333 213.667L314.667 213.333M317.667 214.333L318.333 214.667L317.667 214.333M320.667 215.333L321.333 215.667L320.667 215.333M439 215L439 218L440 218L439 215M323.667 216.333L324.333 216.667L323.667 216.333M327.667 217.333L328.333 217.667L327.667 217.333M330.667 218.333L331.333 218.667L330.667 218.333M57.3333 219.667L57.6667 220.333L57.3333 219.667z"/>
<path style="fill:#555252; stroke:none;" d="M333 219L333 220L336 220L333 219z"/>
<path style="fill:#a09f9f; stroke:none;" d="M337.667 220.333L338.333 220.667L337.667 220.333M58.3333 221.667L58.6667 222.333L58.3333 221.667M341.667 221.333L342.333 221.667L341.667 221.333z"/>
<path style="fill:#555252; stroke:none;" d="M440.333 221.667L440.667 222.333L440.333 221.667z"/>
<path style="fill:#a09f9f; stroke:none;" d="M345.667 222.333L346.333 222.667L345.667 222.333M59.3333 223.667L59.6667 224.333L59.3333 223.667M349 223L349 224L352 224L349 223M440.333 223.667L440.667 224.333L440.333 223.667M353 224L353 225L356 225L353 224z"/>
<path style="fill:#e6e6e6; stroke:none;" d="M0 225L0 240L15 240L15 225L0 225z"/>
<path style="fill:#555252; stroke:none;" d="M357.667 225.333L358.333 225.667L357.667 225.333z"/>
<path style="fill:#e6e6e6; stroke:none;" d="M365 225L365 227L375 227L375 225L365 225M390 225L392 232L405 232L405 225L390 225M420 225L420 234L435 235L435 225L420 225M840 225L840 240L855 240L855 225L840 225z"/>
<path style="fill:#a09f9f; stroke:none;" d="M362 226L362 227L365 227L362 226M367 227L367 228L370 228L367 227M372.667 228.333L373.333 228.667L372.667 228.333z"/>
<path style="fill:#555252; stroke:none;" d="M441.333 228.667L441.667 229.333L441.333 228.667z"/>
<path style="fill:#e6e6e6; stroke:none;" d="M60 229L60 240L68 239L64 231L60 229z"/>
<path style="fill:#a09f9f; stroke:none;" d="M377 229L377 230L380 230L377 229z"/>
<path style="fill:#555252; stroke:none;" d="M382.667 230.333L383.333 230.667L382.667 230.333M388.667 231.333L389.333 231.667L388.667 231.333z"/>
<path style="fill:#a09f9f; stroke:none;" d="M390.667 231.333L391.333 231.667L390.667 231.333z"/>
<path style="fill:#555252; stroke:none;" d="M395.667 232.333L396.333 232.667L395.667 232.333z"/>
<path style="fill:#a09f9f; stroke:none;" d="M397.667 232.333L398.333 232.667L397.667 232.333z"/>
<path style="fill:#555252; stroke:none;" d="M402.667 233.333L403.333 233.667L402.667 233.333z"/>
<path style="fill:#a09f9f; stroke:none;" d="M404.667 233.333L405.333 233.667L404.667 233.333z"/>
<path style="fill:#555252; stroke:none;" d="M410.667 234.333L411.333 234.667L410.667 234.333z"/>
<path style="fill:#a09f9f; stroke:none;" d="M412.667 234.333L413.333 234.667L412.667 234.333M442 234L442 237L443 237L442 234z"/>
<path style="fill:#555252; stroke:none;" d="M807 234L807 242L808 242L807 234M419 235L419 236L423 236L419 235z"/>
<path style="fill:#a09f9f; stroke:none;" d="M423 235L423 236L426 236L423 235z"/>
<path style="fill:#555252; stroke:none;" d="M430 236L430 237L435 237L430 236z"/>
<path style="fill:#a09f9f; stroke:none;" d="M435 236L435 237L439 237L435 236z"/>
<path style="fill:#e6e6e6; stroke:none;" d="M809 240L809 249L808 249L808 247L807 247L808 255L810 255L809 240M885 240L885 255L900 255L900 240L885 240z"/>
<path style="fill:#a09f9f; stroke:none;" d="M69 241L70 242L69 241M807 242L807 247L808 247L807 242M71 244L72 245L71 244M74 248L75 249L74 248M76 251L77 252L76 251z"/>
<path style="fill:#555252; stroke:none;" d="M806 254L806 257L807 257L806 254z"/>
<path style="fill:#e6e6e6; stroke:none;" d="M0 255L0 270L15 270L15 255L0 255M30 255L30 270L45 270L45 255L30 255z"/>
<path style="fill:#a09f9f; stroke:none;" d="M79 255L80 256L79 255z"/>
<path style="fill:#e6e6e6; stroke:none;" d="M840 255L840 270L855 270L855 255L840 255z"/>
<path style="fill:#a09f9f; stroke:none;" d="M80 256L81 257L80 256M806 257L806 260L807 260L806 257M84 261L85 262L84 261M85 262L86 263L85 262z"/>
<path style="fill:#555252; stroke:none;" d="M805 266L805 269L806 269L805 266z"/>
<path style="fill:#a09f9f; stroke:none;" d="M805 269L805 272L806 272L805 269z"/>
<path style="fill:#e6e6e6; stroke:none;" d="M15 270L15 285L30 285L30 270L15 270z"/>
<path style="fill:#a09f9f; stroke:none;" d="M39 270L40 271L39 270z"/>
<path style="fill:#e6e6e6; stroke:none;" d="M45 270C47.9121 275.131 54.5077 277.499 60 279L60 270L45 270M807 270L807 274L806 274L806 272L805 272C804.984 277.722 802.556 284.406 810 285L810 270L807 270M885 270L885 285L900 285L900 270L885 270z"/>
<path style="fill:#555252; stroke:none;" d="M36 275L36 283L37 283L36 275M804 276L804 279L805 279L804 276z"/>
<path style="fill:#a09f9f; stroke:none;" d="M52.6667 277.333L53.3333 277.667L52.6667 277.333M54.6667 278.333L55.3333 278.667L54.6667 278.333M804.333 279.667L804.667 280.333L804.333 279.667M103 280L104 281L103 280M104 281L105 282L104 281M64.6667 282.333L65.3333 282.667L64.6667 282.333M105 282L106 283L105 282M36 283L36 288L37 288L36 283M67.6667 283.333L68.3333 283.667L67.6667 283.333M70.6667 284.333L71.3333 284.667L70.6667 284.333z"/>
<path style="fill:#555252; stroke:none;" d="M803.333 284.667L803.667 285.333L803.333 284.667z"/>
<path style="fill:#e6e6e6; stroke:none;" d="M0 285L0 300L15 300L15 285L0 285M30 285L30 300L38 300L37 288L35 289L35 285L30 285z"/>
<path style="fill:#a09f9f; stroke:none;" d="M73.6667 285.333L74.3333 285.667L73.6667 285.333z"/>
<path style="fill:#e6e6e6; stroke:none;" d="M90 285L90 289L90 290L105 292L105 285L90 285M840 285L840 300L855 300L855 285L840 285z"/>
<path style="fill:#a09f9f; stroke:none;" d="M76.6667 286.333L77.3333 286.667L76.6667 286.333M110 286L111 287L110 286M803 286L803 289L804 289L803 286M80.6667 287.333L81.3333 287.667L80.6667 287.333M84.6667 288.333L85.3333 288.667L84.6667 288.333z"/>
<path style="fill:#555252; stroke:none;" d="M88.6667 289.333L89.3333 289.667L88.6667 289.333z"/>
<path style="fill:#a09f9f; stroke:none;" d="M114 289L115 290L114 289z"/>
<path style="fill:#555252; stroke:none;" d="M93.6667 290.333L94.3333 290.667L93.6667 290.333z"/>
<path style="fill:#a09f9f; stroke:none;" d="M95.6667 290.333L96.3333 290.667L95.6667 290.333z"/>
<path style="fill:#555252; stroke:none;" d="M99.6667 291.333L100.333 291.667L99.6667 291.333z"/>
<path style="fill:#a09f9f; stroke:none;" d="M101 291L101 292L104 292L101 291z"/>
<path style="fill:#555252; stroke:none;" d="M37 292L37 295L38 295L37 292M107 292L107 293L110 293L107 292z"/>
<path style="fill:#a09f9f; stroke:none;" d="M110.667 292.333L111.333 292.667L110.667 292.333M118 292L119 293L118 292z"/>
<path style="fill:#555252; stroke:none;" d="M802.333 292.667L802.667 293.333L802.333 292.667z"/>
<path style="fill:#a09f9f; stroke:none;" d="M37 295L37 298L38 298L37 295z"/>
<path style="fill:#555252; stroke:none;" d="M801.333 299.667L801.667 300.333L801.333 299.667z"/>
<path style="fill:#e6e6e6; stroke:none;" d="M15 300L15 315L30 315L30 300L15 300z"/>
<path style="fill:#555252; stroke:none;" d="M38.3333 300.667L38.6667 301.333L38.3333 300.667z"/>
<path style="fill:#e6e6e6; stroke:none;" d="M803 300L801 315L810 315L810 300L803 300M885 300L885 315L900 315L900 300L885 300z"/>
<path style="fill:#a09f9f; stroke:none;" d="M801.333 301.667L801.667 302.333L801.333 301.667M38.3333 302.667L38.6667 303.333L38.3333 302.667z"/>
<path style="fill:#555252; stroke:none;" d="M800.333 305.667L800.667 306.333L800.333 305.667z"/>
<path style="fill:#a09f9f; stroke:none;" d="M39 307L39 310L40 310L39 307M800.333 307.667L800.667 308.333L800.333 307.667z"/>
<path style="fill:#555252; stroke:none;" d="M799.333 311.667L799.667 312.333L799.333 311.667M40.3333 312.667L40.6667 313.333L40.3333 312.667z"/>
<path style="fill:#e6e6e6; stroke:none;" d="M40 314L30 315L30 330C42.649 330 45.6326 326.543 40 314M0 315L0 330L15 330L15 315L0 315M840 315L840 330L855 330L855 315L840 315z"/>
<path style="fill:#a09f9f; stroke:none;" d="M41 317L41 320L42 320L41 317M798 317L798 320L799 320L798 317M42 321L42 324L43 324L42 321M797 322L797 325L798 325L797 322M43.3333 325.667L43.6667 326.333L43.3333 325.667M796 327L796 330L797 330L796 327z"/>
<path style="fill:#555252; stroke:none;" d="M44.3333 328.667L44.6667 329.333L44.3333 328.667z"/>
<path style="fill:#e6e6e6; stroke:none;" d="M15 330L15 345L30 345L30 360L15 360L15 375L30 375L30 390L15 390L15 405L30 405L30 420L15 420L15 435L30 435L30 450L15 450L15 465L30 465L30 480L15 480L15 495L30 495L30 510L15 510L15 525L30 525L30 540L15 540L15 555L30 555L30 570L15 570L15 585L30 585L30 600L15 600L15 615L30 615L30 630L15 630L15 645L30 645L30 660L15 660L15 675L30 675L30 680L45 680L45 675L60 675L60 660L75 660L75 675L90 675L90 660L105 660L105 645L120 645L120 660L135 660L135 645L150 645L150 660C163.534 660 165 658.534 165 645L180 645L180 630L195 630L195 615L210 615L210 630L225 630L225 615L240 615L240 600L225 600L225 615L210 615L210 600L195 600L195 585L180 585L180 600L165 600L165 585L150 585L150 570L135 570L135 555L150 555C149.892 545.884 144.116 540.108 135 540L135 555L120 555L120 540L105 540L105 525L120 525L120 510L105 510L105 495L90 495L90 480L75 480L75 465L90 465L90 450L105 450L105 464L120 465L120 450L105 450L105 435L90 435L90 420L100 420L100 419L90 411L90 420L75 420L75 405L60 405L60 390L45 390L45 375L30 375L30 360L45 360L45 345L30 345L30 330L15 330M795 335L795 345L810 345L810 330C803.037 330 799.739 329.772 795 335M885 330L885 345L900 345L900 330L885 330z"/>
<path style="fill:#a09f9f; stroke:none;" d="M45.3333 332.667L45.6667 333.333L45.3333 332.667M795 332L795 335L796 335L795 332M46.3333 335.667L46.6667 336.333L46.3333 335.667z"/>
<path style="fill:#555252; stroke:none;" d="M794.333 336.667L794.667 337.333L794.333 336.667z"/>
<path style="fill:#e6e6e6; stroke:none;" d="M45 338L45 345L49 341L45 338z"/>
<path style="fill:#a09f9f; stroke:none;" d="M47.3333 338.667L47.6667 339.333L47.3333 338.667M793.333 341.667L793.667 342.333L793.333 341.667M49.3333 343.667L49.6667 344.333L49.3333 343.667z"/>
<path style="fill:#e6e6e6; stroke:none;" d="M0 345L0 360L15 360L15 345L0 345M794 345L791 352L791 360L795 360L794 345M840 345L840 360L825 360L825 375L840 375L840 390L825 390L825 405L810 405L810 420L825 420L825 435L810 435L810 450L795 450L795 465L780 465L780 480L795 480L795 495L780 495L780 510L765 510L765 525L750 525L750 540L765 540L765 555L750 555L750 570L735 570L735 585L720 585L720 600L705 600L705 615L690 615L690 630L675 630L675 645L660 645L660 660L645 660L645 675L630 675L630 690L615 690L615 705L600 705L600 720L585 720L585 735L600 735L600 720L615 720L615 735L630 735L630 720L645 720L645 735L660 735L660 720L675 720L675 735L690 735L690 720L705 720L705 735L720 735L720 720L735 720L735 735L750 735L750 720L765 720L765 735L780 735L780 720L795 720L795 735L810 735L810 720L825 720L825 735L840 735L840 720L855 720L855 705L840 705L840 690L855 690L855 675L840 675L840 660L855 660L855 645L840 645L840 630L855 630L855 615L840 615L840 600L855 600L855 585L840 585L840 570L855 570L855 555L840 555L840 540L855 540L855 525L840 525L840 510L855 510L855 495L840 495L840 480L855 480L855 465L840 465L840 450L855 450L855 435L840 435L840 420L855 420L855 405L840 405L840 390L855 390L855 375L840 375L840 360L855 360L855 345L840 345z"/>
<path style="fill:#a09f9f; stroke:none;" d="M792.333 346.667L792.667 347.333L792.333 346.667M51.3333 348.667L51.6667 349.333L51.3333 348.667M791.333 350.667L791.667 351.333L791.333 350.667M790.333 354.667L790.667 355.333L790.333 354.667M54.3333 355.667L54.6667 356.333L54.3333 355.667M55.3333 357.667L55.6667 358.333L55.3333 357.667M789.333 358.667L789.667 359.333L789.333 358.667z"/>
<path style="fill:#e6e6e6; stroke:none;" d="M45 360L45 375L60 375C59.7632 363.591 56.1049 360.001 45 360z"/>
<path style="fill:#a09f9f; stroke:none;" d="M56 360L57 361L56 360z"/>
<path style="fill:#e6e6e6; stroke:none;" d="M885 360L885 375L900 375L900 360L885 360z"/>
<path style="fill:#a09f9f; stroke:none;" d="M788.333 361.667L788.667 362.333L788.333 361.667M57 362L58 363L57 362M58 364L59 365L58 364M59.3333 365.667L59.6667 366.333L59.3333 365.667M787.333 365.667L787.667 366.333L787.333 365.667M62 371L63 372L62 371M785.333 372.667L785.667 373.333L785.333 372.667M63 373L64 374L63 373z"/>
<path style="fill:#e6e6e6; stroke:none;" d="M0 375L0 390L15 390L15 375L0 375M60 375L60 390L72 390C71.1354 383.5 66.4192 376.9 60 375M786 375L782 390L795 390L795 375L786 375z"/>
<path style="fill:#a09f9f; stroke:none;" d="M784.333 376.667L784.667 377.333L784.333 376.667M66 378L67 379L66 378M783.333 379.667L783.667 380.333L783.333 379.667M68 381L69 382L68 381M782.333 383.667L782.667 384.333L782.333 383.667M70 384L71 385L70 384M781.333 386.667L781.667 387.333L781.333 386.667M72 387L73 388L72 387z"/>
<path style="fill:#ffffff; stroke:none;" d="M30 390L30 405L45 405L45 420L30 420L30 435L45 435L45 450L30 450L30 465L45 465L45 480L30 480L30 495L45 495L45 510L30 510L30 525L45 525L45 540L30 540L30 555L45 555L45 570L30 570L30 585L45 585L45 600L30 600L30 615L45 615L45 630L30 630L30 645L45 645L45 660L30 660L30 675L45 675L45 660L60 660L60 645L75 645L75 660L90 660L90 645L105 645L105 630L120 630L120 645L135 645L135 630L150 630L150 645L165 645L165 630L180 630L180 615L195 615L195 600L180 600L180 615L165 615L165 600L150 600L150 585L135 585L135 570L120 570L120 555L105 555L105 540L90 540L90 525L105 525L105 510L90 510L90 495L75 495L75 480L60 480L60 465L75 465L75 450L90 450L90 435L75 435L75 420L60 420L60 405L45 405L45 390L30 390z"/>
<path style="fill:#e6e6e6; stroke:none;" d="M885 390L885 405L900 405L900 390L885 390z"/>
<path style="fill:#a09f9f; stroke:none;" d="M75 391L76 392L75 391M779.333 392.667L779.667 393.333L779.333 392.667z"/>
<path style="fill:#e6e6e6; stroke:none;" d="M75 394L75 405C86.8435 404.991 83.5865 398.478 75 394z"/>
<path style="fill:#a09f9f; stroke:none;" d="M78 395L79 396L78 395M778.333 395.667L778.667 396.333L778.333 395.667z"/>
<path style="fill:#e6e6e6; stroke:none;" d="M778 397L776 404L780 405L780 397L778 397z"/>
<path style="fill:#a09f9f; stroke:none;" d="M777.333 398.667L777.667 399.333L777.333 398.667M776.333 401.667L776.667 402.333L776.333 401.667M775.333 404.667L775.667 405.333L775.333 404.667z"/>
<path style="fill:#e6e6e6; stroke:none;" d="M0 405L0 420L15 420L15 405L0 405z"/>
<path style="fill:#ffffff; stroke:none;" d="M825 405L825 420L840 420L840 405L825 405z"/>
<path style="fill:#a09f9f; stroke:none;" d="M772.333 412.667L772.667 413.333L772.333 412.667M771.333 415.667L771.667 416.333L771.333 415.667M101 419L102 420L101 419z"/>
<path style="fill:#e6e6e6; stroke:none;" d="M45 420L45 435L60 435L60 450L45 450L45 465L60 465L60 450L75 450L75 435L60 435L60 420L45 420z"/>
<path style="fill:#a09f9f; stroke:none;" d="M102 420L103 421L102 420M769.333 420.667L769.667 421.333L769.333 420.667z"/>
<path style="fill:#e6e6e6; stroke:none;" d="M771 420L766 435L780 435L780 420L771 420M885 420L885 435L900 435L900 420L885 420z"/>
<path style="fill:#a09f9f; stroke:none;" d="M768.333 423.667L768.667 424.333L768.333 423.667z"/>
<path style="fill:#e6e6e6; stroke:none;" d="M105 425L105 435L119 434L105 425z"/>
<path style="fill:#a09f9f; stroke:none;" d="M108 425L109 426L108 425M766.333 428.667L766.667 429.333L766.333 428.667M113 429L114 430L113 429M764.333 433.667L764.667 434.333L764.333 433.667M120 434L121 435L120 434z"/>
<path style="fill:#e6e6e6; stroke:none;" d="M0 435L0 450L15 450L15 435L0 435z"/>
<path style="fill:#ffffff; stroke:none;" d="M825 435L825 450L810 450L810 465L795 465L795 480L810 480L810 495L795 495L795 510L780 510L780 525L765 525L765 540L780 540L780 555L765 555L765 570L750 570L750 585L735 585L735 600L720 600L720 615L705 615L705 630L690 630L690 645L675 645L675 660L660 660L660 675L645 675L645 690L630 690L630 705L615 705L615 720L630 720L630 705L645 705L645 720L660 720L660 705L675 705L675 720L690 720L690 705L705 705L705 720L720 720L720 705L735 705L735 720L750 720L750 705L765 705L765 720L780 720L780 705L795 705L795 720L810 720L810 705L825 705L825 720L840 720L840 705L825 705L825 690L840 690L840 675L825 675L825 660L840 660L840 645L825 645L825 630L840 630L840 615L825 615L825 600L840 600L840 585L825 585L825 570L840 570L840 555L825 555L825 540L840 540L840 525L825 525L825 510L840 510L840 495L825 495L825 480L840 480L840 465L825 465L825 450L840 450L840 435L825 435z"/>
<path style="fill:#e6e6e6; stroke:none;" d="M120 436L120 450L135 450C134.892 440.959 127.931 438.124 120 436z"/>
<path style="fill:#a09f9f; stroke:none;" d="M123 436L124 437L123 436M762.333 438.667L762.667 439.333L762.333 438.667z"/>
<path style="fill:#e6e6e6; stroke:none;" d="M764 438L758 450L765 450L764 438z"/>
<path style="fill:#555252; stroke:none;" d="M133.667 442.333L134.333 442.667L133.667 442.333z"/>
<path style="fill:#a09f9f; stroke:none;" d="M135 443L136 444L135 443M137 444L138 445L137 444M139 445L140 446L139 445M759.333 445.667L759.667 446.333L759.333 445.667M141 446L142 447L141 446M143 447L144 448L143 447M758.333 447.667L758.667 448.333L758.333 447.667M145 448L146 449L145 448z"/>
<path style="fill:#555252; stroke:none;" d="M147.667 449.333L148.333 449.667L147.667 449.333z"/>
<path style="fill:#e6e6e6; stroke:none;" d="M135 450L135 465L150 465C150 452.216 147.936 450 135 450z"/>
<path style="fill:#555252; stroke:none;" d="M149.667 450.333L150.333 450.667L149.667 450.333z"/>
<path style="fill:#a09f9f; stroke:none;" d="M757 450L758 451L757 450z"/>
<path style="fill:#e6e6e6; stroke:none;" d="M885 450L885 465L900 465L900 450L885 450z"/>
<path style="fill:#a09f9f; stroke:none;" d="M152 451L153 452L152 451z"/>
<path style="fill:#555252; stroke:none;" d="M157.667 453.333L158.333 453.667L157.667 453.333M165.667 456.333L166.333 456.667L165.667 456.333z"/>
<path style="fill:#a09f9f; stroke:none;" d="M754.333 456.667L754.667 457.333L754.333 456.667z"/>
<path style="fill:#e6e6e6; stroke:none;" d="M182 462C179.137 459.654 170.138 455.694 166.604 458.218C160.188 462.803 171.107 464.417 174 463.764C176.689 463.157 179.27 462.401 182 462z"/>
<path style="fill:#a09f9f; stroke:none;" d="M753 459L754 460L753 459z"/>
<path style="fill:#555252; stroke:none;" d="M181 460L183 462L183 460L181 460z"/>
<path style="fill:#a09f9f; stroke:none;" d="M752 461L753 462L752 461z"/>
<path style="fill:#555252; stroke:none;" d="M178.667 462.333L179.333 462.667L178.667 462.333z"/>
<path style="fill:#a09f9f; stroke:none;" d="M101.667 464.333L102.333 464.667L101.667 464.333z"/>
<path style="fill:#555252; stroke:none;" d="M170.667 464.333L171.333 464.667L170.667 464.333z"/>
<path style="fill:#e6e6e6; stroke:none;" d="M0 465L0 480L15 480L15 465L0 465M90 465L90 480L105 480L102 466L90 465z"/>
<path style="fill:#555252; stroke:none;" d="M105.667 465.333L106.333 465.667L105.667 465.333z"/>
<path style="fill:#a09f9f; stroke:none;" d="M163.667 465.333L164.333 465.667L163.667 465.333z"/>
<path style="fill:#555252; stroke:none;" d="M165.667 465.333L166.333 465.667L165.667 465.333z"/>
<path style="fill:#e6e6e6; stroke:none;" d="M810 465L810 480L825 480L825 465L810 465z"/>
<path style="fill:#555252; stroke:none;" d="M111.667 466.333L112.333 466.667L111.667 466.333z"/>
<path style="fill:#a09f9f; stroke:none;" d="M113 466L113 467L116 467L113 466M155 466L155 467L158 467L155 466z"/>
<path style="fill:#555252; stroke:none;" d="M158.667 466.333L159.333 466.667L158.667 466.333M121 467L121 468L125 468L121 467z"/>
<path style="fill:#a09f9f; stroke:none;" d="M125 467L125 468L129 468L125 467M142 467L142 468L148 468L142 467z"/>
<path style="fill:#555252; stroke:none;" d="M148.667 467.333L149.333 467.667L148.667 467.333z"/>
<path style="fill:#a09f9f; stroke:none;" d="M102.333 468.667L102.667 469.333L102.333 468.667M104.333 474.667L104.667 475.333L104.333 474.667z"/>
<path style="fill:#e6e6e6; stroke:none;" d="M45 480L45 495L60 495L60 510L45 510L45 525L60 525L60 540L45 540L45 555L60 555L60 570L45 570L45 585L60 585L60 600L45 600L45 615L60 615L60 630L45 630L45 645L60 645L60 630L75 630L75 645L90 645L90 630L105 630L105 615L120 615L120 630L135 630L135 615L150 615L150 630L165 630L165 615L150 615L150 600L135 600L135 585L120 585L120 570L105 570L105 555L90 555L90 540L75 540L75 525L90 525L90 510L75 510L75 495L60 495L60 480L45 480M106 480L105 495L111 495L106 480M737 495L750 495L750 480C742.135 480.583 738.129 487.761 737 495M885 480L885 495L900 495L900 480L885 480z"/>
<path style="fill:#a09f9f; stroke:none;" d="M742.333 481.667L742.667 482.333L742.333 481.667M107.333 482.667L107.667 483.333L107.333 482.667M111.333 491.667L111.667 492.333L111.333 491.667M737 491L738 492L737 491M112.333 493.667L112.667 494.333L112.333 493.667M736 493L737 494L736 493z"/>
<path style="fill:#e6e6e6; stroke:none;" d="M0 495L0 510L15 510L15 495L0 495z"/>
<path style="fill:#a09f9f; stroke:none;" d="M113.333 495.667L113.667 496.333L113.333 495.667z"/>
<path style="fill:#e6e6e6; stroke:none;" d="M810 495L810 510L795 510L795 525L780 525L780 540L795 540L795 555L780 555L780 570L765 570L765 585L750 585L750 600L735 600L735 615L720 615L720 630L705 630L705 645L690 645L690 660L675 660L675 675L660 675L660 690L645 690L645 705L660 705L660 690L675 690L675 705L690 705L690 690L705 690L705 705L720 705L720 690L735 690L735 705L750 705L750 690L765 690L765 705L780 705L780 690L795 690L795 705L810 705L810 690L825 690L825 675L810 675L810 660L825 660L825 645L810 645L810 630L825 630L825 615L810 615L810 600L825 600L825 585L810 585L810 570L825 570L825 555L810 555L810 540L825 540L825 525L810 525L810 510L825 510L825 495L810 495M732 500L728 509L735 510L735 500L732 500z"/>
<path style="fill:#a09f9f; stroke:none;" d="M731 502L732 503L731 502M117 503L118 504L117 503M730.333 503.667L730.667 504.333L730.333 503.667M118 505L119 506L118 505M727 509L728 510L727 509z"/>
<path style="fill:#ffffff; stroke:none;" d="M60 510L60 525L75 525L75 510L60 510z"/>
<path style="fill:#a09f9f; stroke:none;" d="M121 510L122 511L121 510z"/>
<path style="fill:#e6e6e6; stroke:none;" d="M885 510L885 525L900 525L900 510L885 510z"/>
<path style="fill:#a09f9f; stroke:none;" d="M725 512L726 513L725 512M123 513L124 514L123 513M724 514L725 515L724 514M722 517L723 518L722 517M721 519L722 520L721 519M129 522L130 523L129 522M719 522L720 523L719 522M718 524L719 525L718 524z"/>
<path style="fill:#e6e6e6; stroke:none;" d="M0 525L0 540L15 540L15 525L0 525M120 525L120 540L135 540C135 527.877 132.153 525.001 120 525z"/>
<path style="fill:#a09f9f; stroke:none;" d="M131 525L132 526L131 525M717 525L718 526L717 525z"/>
<path style="fill:#ffffff; stroke:none;" d="M795 525L795 540L810 540L810 525L795 525z"/>
<path style="fill:#a09f9f; stroke:none;" d="M716 527L717 528L716 527M135 530L136 531L135 530M714 530L715 531L714 530M136 531L137 532L136 531M712 533L713 534L712 533M140 536L141 537L140 536M710 536L711 537L710 536M141 537L142 538L141 537M142 538L143 539L142 538M708 539L709 540L708 539z"/>
<path style="fill:#ffffff; stroke:none;" d="M60 540L60 555L75 555L75 570L60 570L60 585L75 585L75 600L60 600L60 615L75 615L75 630L90 630L90 615L105 615L105 600L120 600L120 615L135 615L135 600L120 600L120 585L105 585L105 570L90 570L90 555L75 555L75 540L60 540z"/>
<path style="fill:#e6e6e6; stroke:none;" d="M705 555L720 555L720 540C707.742 540 705 542.611 705 555M885 540L885 555L900 555L900 540L885 540z"/>
<path style="fill:#a09f9f; stroke:none;" d="M706 542L707 543L706 542M704 545L705 546L704 545M156 552L157 553L156 552M699 552L700 553L699 552M157 553L158 554L157 553M158 554L159 555L158 554z"/>
<path style="fill:#e6e6e6; stroke:none;" d="M0 555L0 570L15 570L15 555L0 555M150 555L150 570L165 570L166 560C160.328 556.189 156.826 555.001 150 555z"/>
<path style="fill:#a09f9f; stroke:none;" d="M697 555L698 556L697 555z"/>
<path style="fill:#e6e6e6; stroke:none;" d="M676 585L690 585L690 570L705 570L705 555C693.39 555.281 679.95 574.787 676 585z"/>
<path style="fill:#ffffff; stroke:none;" d="M795 555L795 570L780 570L780 585L765 585L765 600L750 600L750 615L735 615L735 630L720 630L720 645L705 645L705 660L690 660L690 675L675 675L675 690L690 690L690 675L705 675L705 690L720 690L720 675L735 675L735 690L750 690L750 675L765 675L765 690L780 690L780 675L795 675L795 690L810 690L810 675L795 675L795 660L810 660L810 645L795 645L795 630L810 630L810 615L795 615L795 600L810 600L810 585L795 585L795 570L810 570L810 555L795 555z"/>
<path style="fill:#a09f9f; stroke:none;" d="M164 559L165 560L164 559M694 559L695 560L694 559M168 562L169 563L168 562M691 563L692 564L691 563M172 565L173 566L172 565M688 567L689 568L688 567M178 569L179 570L178 569z"/>
<path style="fill:#e6e6e6; stroke:none;" d="M75 570L75 585L90 585L90 600L75 600L75 615L90 615L90 600L105 600L105 585L90 585L90 570L75 570M165 570L165 585L180 585L180 570L165 570M885 570L885 585L900 585L900 570L885 570z"/>
<path style="fill:#a09f9f; stroke:none;" d="M181 571L182 572L181 571M685 571L686 572L685 571M684 572L685 573L684 572M184 573L185 574L184 573M186 574L187 575L186 574M681 576L682 577L681 576M191 577L192 578L191 577M680 577L681 578L680 577M193 578L194 579L193 578M195 579L196 580L195 579z"/>
<path style="fill:#e6e6e6; stroke:none;" d="M195 581L195 585L204 584L204 583L195 581z"/>
<path style="fill:#a09f9f; stroke:none;" d="M677 581L678 582L677 581M676 582L677 583L676 582z"/>
<path style="fill:#555252; stroke:none;" d="M205.667 584.333L206.333 584.667L205.667 584.333z"/>
<path style="fill:#e6e6e6; stroke:none;" d="M0 585L0 600L15 600L15 585L0 585z"/>
<path style="fill:#a09f9f; stroke:none;" d="M208 585L209 586L208 585z"/>
<path style="fill:#e6e6e6; stroke:none;" d="M780 585L780 600L765 600L765 615L750 615L750 630L735 630L735 645L720 645L720 660L705 660L705 675L720 675L720 660L735 660L735 675L750 675L750 660L765 660L765 675L780 675L780 660L795 660L795 645L780 645L780 630L795 630L795 615L780 615L780 600L795 600L795 585L780 585z"/>
<path style="fill:#555252; stroke:none;" d="M210.667 586.333L211.333 586.667L210.667 586.333z"/>
<path style="fill:#a09f9f; stroke:none;" d="M672 587L671 589L672 587z"/>
<path style="fill:#e6e6e6; stroke:none;" d="M674 587L664 600L675 600L674 587M210 588L210 600L225 600L222 590L210 588z"/>
<path style="fill:#555252; stroke:none;" d="M215.667 588.333L216.333 588.667L215.667 588.333M224.667 591.333L225.333 591.667L224.667 591.333M228.667 592.333L229.333 592.667L228.667 592.333M231.667 593.333L232.333 593.667L231.667 593.333M235 594L235 595L238 595L235 594z"/>
<path style="fill:#a09f9f; stroke:none;" d="M666 594L667 595L666 594z"/>
<path style="fill:#555252; stroke:none;" d="M240.667 595.333L241.333 595.667L240.667 595.333z"/>
<path style="fill:#a09f9f; stroke:none;" d="M665 595L666 596L665 595z"/>
<path style="fill:#e6e6e6; stroke:none;" d="M240 600L255 600L255 599L244 596L240 600z"/>
<path style="fill:#a09f9f; stroke:none;" d="M244.667 596.333L245.333 596.667L244.667 596.333z"/>
<path style="fill:#555252; stroke:none;" d="M246.667 596.333L247.333 596.667L246.667 596.333z"/>
<path style="fill:#a09f9f; stroke:none;" d="M664 596L665 597L664 596M250 597L250 598L253 598L250 597z"/>
<path style="fill:#555252; stroke:none;" d="M253.667 597.333L254.333 597.667L253.667 597.333z"/>
<path style="fill:#a09f9f; stroke:none;" d="M260.667 598.333L261.333 598.667L260.667 598.333z"/>
<path style="fill:#555252; stroke:none;" d="M262 598L262 599L266 599L262 598z"/>
<path style="fill:#e6e6e6; stroke:none;" d="M255 600L256 612L269 600L255 600M885 600L885 615L900 615L900 600L885 600z"/>
<path style="fill:#a09f9f; stroke:none;" d="M269 601L270 602L269 601M268 602L269 603L268 602M658 603L654 608L658 603z"/>
<path style="fill:#e6e6e6; stroke:none;" d="M650 615L660 615L660 604C655.176 606.25 651.456 609.814 650 615z"/>
<path style="fill:#a09f9f; stroke:none;" d="M255 612L256 613L255 612M252 614L253 615L252 614z"/>
<path style="fill:#e6e6e6; stroke:none;" d="M0 615L0 630L15 630L15 615L0 615M240 615L241 622L249 615L240 615z"/>
<path style="fill:#ffffff; stroke:none;" d="M765 615L765 630L750 630L750 645L735 645L735 660L750 660L750 645L765 645L765 660L780 660L780 645L765 645L765 630L780 630L780 615L765 615z"/>
<path style="fill:#a09f9f; stroke:none;" d="M249 616L250 617L249 616M239 623L240 624L239 623M231 628L232 629L231 628z"/>
<path style="fill:#e6e6e6; stroke:none;" d="M195 630L195 645L211 641L210 630L195 630M885 630L885 645L900 645L900 630L885 630z"/>
<path style="fill:#a09f9f; stroke:none;" d="M226 631L227 632L226 631M629 632L630 633L629 632M628 633L625 637L628 633M221 634L222 635L221 634z"/>
<path style="fill:#e6e6e6; stroke:none;" d="M618 645L630 645L630 634C624.749 636.223 620.431 639.801 618 645z"/>
<path style="fill:#a09f9f; stroke:none;" d="M219 635L220 636L219 635M212 639L213 640L212 639M618 642L619 643L618 642M617 643L618 644L617 643M616 644L617 645L616 644z"/>
<path style="fill:#e6e6e6; stroke:none;" d="M0 645L0 660L15 660L15 645L0 645M180 645L180 653C185.871 652.727 191.731 650.04 195 645L180 645z"/>
<path style="fill:#a09f9f; stroke:none;" d="M198 646L199 647L198 646M196 647L197 648L196 647z"/>
<path style="fill:#e6e6e6; stroke:none;" d="M614 648C604.737 652.94 586.485 663.897 585 675L600 675L600 660L615 660L614 648z"/>
<path style="fill:#a09f9f; stroke:none;" d="M610 649L611 650L610 649z"/>
<path style="fill:#555252; stroke:none;" d="M189.667 650.333L190.333 650.667L189.667 650.333z"/>
<path style="fill:#a09f9f; stroke:none;" d="M609 650L610 651L609 650z"/>
<path style="fill:#555252; stroke:none;" d="M182.667 653.333L183.333 653.667L182.667 653.333z"/>
<path style="fill:#a09f9f; stroke:none;" d="M180 654L181 655L180 654M604 654L605 655L604 654M603 655L604 656L603 655z"/>
<path style="fill:#555252; stroke:none;" d="M175.667 656.333L176.333 656.667L175.667 656.333z"/>
<path style="fill:#a09f9f; stroke:none;" d="M170 658L171 659L170 658M599 658L600 659L599 658z"/>
<path style="fill:#555252; stroke:none;" d="M167.667 659.333L168.333 659.667L167.667 659.333z"/>
<path style="fill:#e6e6e6; stroke:none;" d="M105 660L105 675L120 674L120 673L118 672L120 660L105 660M135 660L135 668C141.637 668.892 149.141 667.528 150 660L135 660M885 660L885 675L900 675L900 660L885 660z"/>
<path style="fill:#a09f9f; stroke:none;" d="M162 661L163 662L162 661M159 662L160 663L159 662M594 662L595 663L594 662z"/>
<path style="fill:#555252; stroke:none;" d="M156.667 663.333L157.333 663.667L156.667 663.333z"/>
<path style="fill:#a09f9f; stroke:none;" d="M153 664L154 665L153 664M149.667 665.333L150.333 665.667L149.667 665.333M590 665L591 666L590 665M142 667L142 668L145 668L142 667M586 668L587 669L586 668z"/>
<path style="fill:#555252; stroke:none;" d="M136.667 669.333L137.333 669.667L136.667 669.333M132.667 670.333L133.333 670.667L132.667 670.333M128.667 671.333L129.333 671.667L128.667 671.333z"/>
<path style="fill:#a09f9f; stroke:none;" d="M582 671L583 672L582 671z"/>
<path style="fill:#555252; stroke:none;" d="M124.667 672.333L125.333 672.667L124.667 672.333M120.667 673.333L121.333 673.667L120.667 673.333z"/>
<path style="fill:#a09f9f; stroke:none;" d="M579 673L580 674L579 673z"/>
<path style="fill:#555252; stroke:none;" d="M115.667 674.333L116.333 674.667L115.667 674.333z"/>
<path style="fill:#a09f9f; stroke:none;" d="M578 674L579 675L578 674z"/>
<path style="fill:#e6e6e6; stroke:none;" d="M0 675C1.93634 680.834 9.90703 679.539 15 679L15 675L0 675M60 675L60 680L75 679L75 675L60 675M90 675L90 677L96 678C96 674.898 99.3672 676 102 676L90 675z"/>
<path style="fill:#555252; stroke:none;" d="M109 675L109 676L112 676L109 675z"/>
<path style="fill:#e6e6e6; stroke:none;" d="M569 680L570 690L585 690L585 675L569 680z"/>
<path style="fill:#a09f9f; stroke:none;" d="M103.667 676.333L104.333 676.667L103.667 676.333z"/>
<path style="fill:#555252; stroke:none;" d="M105.667 676.333L106.333 676.667L105.667 676.333z"/>
<path style="fill:#a09f9f; stroke:none;" d="M575 676L576 677L575 676M96 677L96 678L100 678L96 677M0.333333 678.667L0.666667 679.333L0.333333 678.667z"/>
<path style="fill:#555252; stroke:none;" d="M90 678L90 679L93 679L90 678z"/>
<path style="fill:#a09f9f; stroke:none;" d="M572 678L573 679L572 678z"/>
<path style="fill:#555252; stroke:none;" d="M4.66667 679.333L5.33333 679.667L4.66667 679.333z"/>
<path style="fill:#a09f9f; stroke:none;" d="M6 679L6 680L9 680L6 679M81 679L81 680L84 680L81 679z"/>
<path style="fill:#555252; stroke:none;" d="M84.6667 679.333L85.3333 679.667L84.6667 679.333z"/>
<path style="fill:#e6e6e6; stroke:none;" d="M0 680L0 690L14 690L0 680z"/>
<path style="fill:#555252; stroke:none;" d="M13 680L13 681L16 681L13 680z"/>
<path style="fill:#a09f9f; stroke:none;" d="M16 680L16 681L19 681L16 680M68 680L68 681L73 681L68 680z"/>
<path style="fill:#555252; stroke:none;" d="M73 680L73 681L76 681L73 680z"/>
<path style="fill:#a09f9f; stroke:none;" d="M3 681L4 682L3 681z"/>
<path style="fill:#555252; stroke:none;" d="M28 681L28 682L36 682L28 681z"/>
<path style="fill:#a09f9f; stroke:none;" d="M36 681L36 682L57 682L36 681z"/>
<path style="fill:#555252; stroke:none;" d="M57 681L57 682L61 682L57 681z"/>
<path style="fill:#a09f9f; stroke:none;" d="M6 683L7 684L6 683M563 684L564 685L563 684M9 685L10 686L9 685M560 686L561 687L560 686M14 688L15 689L14 688M557 688L558 689L557 688z"/>
<path style="fill:#ffffff; stroke:none;" d="M0 690L0 705L15 705L15 720L0 720L0 735L15 735L15 750L0 750L0 766L256 766L256 765L205 761L205 762L210 762L210 765L195 765L195 760L199 760L199 759L179 756L180 765L165 765L165 752L130 743L130 744L135 745L135 750L120 750C120 747.009 120.862 742.246 118.972 739.699C114.723 733.971 95.8867 729.186 89 728L90 735L75 735L75 723L79 724L79 723L60 720L60 716L66 718L66 717L44 707L45 720L30 720L30 705L43 706L43 705L28 698L28 699L30 705L15 705L17 690L0 690z"/>
<path style="fill:#a09f9f; stroke:none;" d="M17 690L18 691L17 690M554 690L555 691L554 690z"/>
<path style="fill:#e6e6e6; stroke:none;" d="M885 690L885 705L900 705L900 690L885 690M15 691L15 705L30 705L30 698L15 691z"/>
<path style="fill:#a09f9f; stroke:none;" d="M22 693L23 694L22 693M549 693L550 694L549 693M27 696L28 697L27 696M544 696L545 697L544 696M539 699L540 700L539 699M34 700L35 701L34 700M36 701L37 702L36 701z"/>
<path style="fill:#e6e6e6; stroke:none;" d="M539 701L533 703L533 705L540 705L539 701z"/>
<path style="fill:#a09f9f; stroke:none;" d="M534 702L535 703L534 702M532 703L533 704L532 703z"/>
<path style="fill:#e6e6e6; stroke:none;" d="M0 705L0 720L15 720L15 705L0 705M30 705L30 720L45 720L46 707L30 705z"/>
<path style="fill:#a09f9f; stroke:none;" d="M43 705L44 706L43 705M47 707L48 708L47 707M49 708L50 709L49 708M521 710L524 709L521 710M51 709L52 710L51 709z"/>
<path style="fill:#e6e6e6; stroke:none;" d="M509 715L510 720L525 720L525 709L509 715z"/>
<path style="fill:#a09f9f; stroke:none;" d="M519 710L520 711L519 710M517 711L518 712L517 711z"/>
<path style="fill:#e6e6e6; stroke:none;" d="M60 716L60 720L70 719L60 716z"/>
<path style="fill:#a09f9f; stroke:none;" d="M507 716L508 717L507 716M504.667 717.333L505.333 717.667L504.667 717.333M502.667 718.333L503.333 718.667L502.667 718.333M71 719L72 720L71 719z"/>
<path style="fill:#e6e6e6; stroke:none;" d="M15 720L15 735L30 735L30 750L15 750L15 765L30 765L30 750L45 750L45 765L60 765L60 750L75 750L75 765L90 765L90 750L105 750L105 765L120 765L120 750L105 750L105 735L90 735L90 750L75 750L75 735L60 735L60 720L45 720L45 735L30 735L30 720L15 720z"/>
<path style="fill:#555252; stroke:none;" d="M73.6667 720.333L74.3333 720.667L73.6667 720.333z"/>
<path style="fill:#e6e6e6; stroke:none;" d="M494 722L495 735L510 735L510 720L494 722M555 720L555 735L570 735L570 720L555 720M885 720L885 735L900 735L900 720L885 720z"/>
<path style="fill:#555252; stroke:none;" d="M75.6667 721.333L76.3333 721.667L75.6667 721.333z"/>
<path style="fill:#e6e6e6; stroke:none;" d="M75 723L75 735L90 735C89.7775 725.803 83.2972 723.733 75 723z"/>
<path style="fill:#a09f9f; stroke:none;" d="M491.667 723.333L492.333 723.667L491.667 723.333z"/>
<path style="fill:#555252; stroke:none;" d="M82.6667 724.333L83.3333 724.667L82.6667 724.333z"/>
<path style="fill:#a09f9f; stroke:none;" d="M487 725L488 726L487 725M484.667 726.333L485.333 726.667L484.667 726.333z"/>
<path style="fill:#555252; stroke:none;" d="M89.6667 727.333L90.3333 727.667L89.6667 727.333z"/>
<path style="fill:#a09f9f; stroke:none;" d="M480 728L481 729L480 728z"/>
<path style="fill:#555252; stroke:none;" d="M94.6667 729.333L95.3333 729.667L94.6667 729.333z"/>
<path style="fill:#a09f9f; stroke:none;" d="M477.667 729.333L478.333 729.667L477.667 729.333M97 730L98 731L97 730z"/>
<path style="fill:#e6e6e6; stroke:none;" d="M469 734L469 735L480 735L480 730L469 734z"/>
<path style="fill:#555252; stroke:none;" d="M99.6667 731.333L100.333 731.667L99.6667 731.333z"/>
<path style="fill:#a09f9f; stroke:none;" d="M472.667 731.333L473.333 731.667L472.667 731.333M102 732L103 733L102 732M469.667 732.333L470.333 732.667L469.667 732.333z"/>
<path style="fill:#555252; stroke:none;" d="M107.667 734.333L108.333 734.667L107.667 734.333z"/>
<path style="fill:#a09f9f; stroke:none;" d="M464.667 734.333L465.333 734.667L464.667 734.333z"/>
<path style="fill:#e6e6e6; stroke:none;" d="M0 735L0 750L15 750L15 735L0 735z"/>
<path style="fill:#ffffff; stroke:none;" d="M45 735L45 750L60 750L60 735L45 735z"/>
<path style="fill:#a09f9f; stroke:none;" d="M110 735L111 736L110 735M461.667 735.333L462.333 735.667L461.667 735.333z"/>
<path style="fill:#e6e6e6; stroke:none;" d="M450 750L465 750L464 735C454.552 737.734 450.008 739.631 450 750z"/>
<path style="fill:#555252; stroke:none;" d="M115.667 737.333L116.333 737.667L115.667 737.333M118.667 738.333L119.333 738.667L118.667 738.333z"/>
<path style="fill:#e6e6e6; stroke:none;" d="M120 739L120 750L135 750L135 745L131 742L120 739z"/>
<path style="fill:#a09f9f; stroke:none;" d="M450.667 739.333L451.333 739.667L450.667 739.333z"/>
<path style="fill:#555252; stroke:none;" d="M133.667 743.333L134.333 743.667L133.667 743.333z"/>
<path style="fill:#a09f9f; stroke:none;" d="M437.667 743.333L438.333 743.667L437.667 743.333z"/>
<path style="fill:#555252; stroke:none;" d="M137.667 744.333L138.333 744.667L137.667 744.333z"/>
<path style="fill:#a09f9f; stroke:none;" d="M434.667 744.333L435.333 744.667L434.667 744.333z"/>
<path style="fill:#555252; stroke:none;" d="M140.667 745.333L141.333 745.667L140.667 745.333z"/>
<path style="fill:#a09f9f; stroke:none;" d="M431.667 745.333L432.333 745.667L431.667 745.333z"/>
<path style="fill:#e6e6e6; stroke:none;" d="M425 747L423 749L423 750L435 750L434 745L425 747z"/>
<path style="fill:#555252; stroke:none;" d="M143.667 746.333L144.333 746.667L143.667 746.333z"/>
<path style="fill:#a09f9f; stroke:none;" d="M427.667 746.333L428.333 746.667L427.667 746.333z"/>
<path style="fill:#555252; stroke:none;" d="M147.667 747.333L148.333 747.667L147.667 747.333M423.667 747.333L424.333 747.667L423.667 747.333M150.667 748.333L151.333 748.667L150.667 748.333z"/>
<path style="fill:#a09f9f; stroke:none;" d="M420.667 748.333L421.333 748.667L420.667 748.333z"/>
<path style="fill:#555252; stroke:none;" d="M154.667 749.333L155.333 749.667L154.667 749.333z"/>
<path style="fill:#a09f9f; stroke:none;" d="M416.667 749.333L417.333 749.667L416.667 749.333z"/>
<path style="fill:#e6e6e6; stroke:none;" d="M135 750L135 765L150 765L150 750L135 750z"/>
<path style="fill:#555252; stroke:none;" d="M158.667 750.333L159.333 750.667L158.667 750.333z"/>
<path style="fill:#a09f9f; stroke:none;" d="M412.667 750.333L413.333 750.667L412.667 750.333z"/>
<path style="fill:#e6e6e6; stroke:none;" d="M414 750C407.186 755.955 405 754.72 405 765L420 765L420 750L414 750M435 750L435 765L450 765L450 750L435 750M885 750L885 765L900 765L900 750L885 750z"/>
<path style="fill:#555252; stroke:none;" d="M162.667 751.333L163.333 751.667L162.667 751.333z"/>
<path style="fill:#a09f9f; stroke:none;" d="M408.667 751.333L409.333 751.667L408.667 751.333z"/>
<path style="fill:#e6e6e6; stroke:none;" d="M165 752L165 765L180 765C179.97 754.547 174.322 753.929 165 752z"/>
<path style="fill:#a09f9f; stroke:none;" d="M403 752L403 753L406 753L403 752z"/>
<path style="fill:#555252; stroke:none;" d="M171.667 753.333L172.333 753.667L171.667 753.333z"/>
<path style="fill:#a09f9f; stroke:none;" d="M399.667 753.333L400.333 753.667L399.667 753.333M174 754L174 755L177 755L174 754M394 754L394 755L397 755L394 754M179 755L179 756L182 756L179 755M390.667 755.333L391.333 755.667L390.667 755.333M184 756L184 757L187 757L184 756z"/>
<path style="fill:#555252; stroke:none;" d="M384.667 756.333L385.333 756.667L384.667 756.333z"/>
<path style="fill:#e6e6e6; stroke:none;" d="M376 758L375 765L390 765C389.962 754.182 384.385 757.634 376 758z"/>
<path style="fill:#a09f9f; stroke:none;" d="M189 757L189 758L192 758L189 757M379 757L379 758L382 758L379 757z"/>
<path style="fill:#555252; stroke:none;" d="M195 758L195 759L198 759L195 758z"/>
<path style="fill:#a09f9f; stroke:none;" d="M373 758L373 759L376 759L373 758z"/>
<path style="fill:#e6e6e6; stroke:none;" d="M195 760L195 765L210 765L210 762L205 762L206 760L195 760z"/>
<path style="fill:#a09f9f; stroke:none;" d="M200.667 759.333L201.333 759.667L200.667 759.333z"/>
<path style="fill:#555252; stroke:none;" d="M202.667 759.333L203.333 759.667L202.667 759.333M366.667 759.333L367.333 759.667L366.667 759.333z"/>
<path style="fill:#a09f9f; stroke:none;" d="M368.667 759.333L369.333 759.667L368.667 759.333M206.667 760.333L207.333 760.667L206.667 760.333z"/>
<path style="fill:#555252; stroke:none;" d="M208.667 760.333L209.333 760.667L208.667 760.333M360.667 760.333L361.333 760.667L360.667 760.333z"/>
<path style="fill:#a09f9f; stroke:none;" d="M214 761L214 762L217 762L214 761z"/>
<path style="fill:#555252; stroke:none;" d="M352 761L352 762L355 762L352 761z"/>
<path style="fill:#a09f9f; stroke:none;" d="M355.667 761.333L356.333 761.667L355.667 761.333z"/>
<path style="fill:#e6e6e6; stroke:none;" d="M349 762L350 764L345 764L345 765L360 765L359 761L349 762z"/>
<path style="fill:#a09f9f; stroke:none;" d="M221 762L221 763L224 763L221 762z"/>
<path style="fill:#555252; stroke:none;" d="M224.667 762.333L225.333 762.667L224.667 762.333M343 762L343 763L346 763L343 762z"/>
<path style="fill:#a09f9f; stroke:none;" d="M346 762L346 763L349 763L346 762M229 763L229 764L232 764L229 763z"/>
<path style="fill:#555252; stroke:none;" d="M232 763L232 764L235 764L232 763M333 763L333 764L337 764L333 763z"/>
<path style="fill:#a09f9f; stroke:none;" d="M337.667 763.333L338.333 763.667L337.667 763.333M241 764L241 765L244 765L241 764z"/>
<path style="fill:#555252; stroke:none;" d="M244 764L244 765L247 765L244 764M321 764L321 765L325 765L321 764z"/>
<path style="fill:#a09f9f; stroke:none;" d="M325 764L325 765L328 765L325 764M256 765L256 766L262 766L256 765z"/>
<path style="fill:#555252; stroke:none;" d="M262 765L262 766L268 766L262 765M300 765L300 766L308 766L300 765z"/>
<path style="fill:#a09f9f; stroke:none;" d="M308 765L308 766L314 766L308 765z"/>
</svg>
