<?xml version="1.0" standalone="no"?>
<!DOCTYPE svg PUBLIC "-//W3C//DTD SVG 20010904//EN"
 "http://www.w3.org/TR/2001/REC-SVG-20010904/DTD/svg10.dtd">
<svg version="1.0" xmlns="http://www.w3.org/2000/svg"
 width="900.000000pt" height="900.000000pt" viewBox="0 0 900.000000 900.000000"
 preserveAspectRatio="xMidYMid meet">

<g transform="translate(0.000000,900.000000) scale(0.100000,-0.100000)"
fill="#000000" stroke="none">
<path d="M2040 8911 c-130 -42 -196 -86 -430 -291 -85 -74 -198 -169 -250
-211 -52 -43 -140 -124 -196 -180 -420 -433 -668 -967 -746 -1604 -18 -155
-16 -544 6 -715 115 -934 589 -1916 1441 -2985 467 -586 1049 -1188 1538
-1588 784 -643 1533 -1005 2307 -1114 177 -25 597 -25 765 0 527 79 1009 293
1372 613 334 294 512 456 546 498 222 270 195 549 -84 891 -143 175 -669 641
-963 853 -132 94 -371 214 -496 247 -247 66 -473 31 -678 -105 -114 -75 -412
-337 -558 -489 -126 -131 -214 -196 -320 -238 -91 -35 -264 -44 -372 -19 -232
53 -473 190 -772 438 -355 296 -880 880 -1192 1328 -164 235 -320 528 -378
710 -83 263 -80 478 12 653 44 84 177 216 306 303 118 80 451 368 531 459 140
160 197 298 208 500 17 331 -119 642 -602 1375 -268 408 -475 606 -704 674
-74 22 -219 20 -291 -3z"/>
</g>
</svg>
